<!DOCTYPE svg PUBLIC "-//W3C//DTD SVG 20010904//EN" "http://www.w3.org/TR/2001/REC-SVG-20010904/DTD/svg10.dtd">
<svg version="1.0" xmlns="http://www.w3.org/2000/svg" width="1018px" height="1200px" viewBox="0 0 10180 12000" preserveAspectRatio="xMidYMid meet">
<g id="layer101" fill="#424cbb" stroke="none">
<path d="M3710 10955 l0 -1045 -72 0 c-112 0 -192 -17 -282 -60 -257 -121 -406 -355 -406 -637 0 -46 -2 -83 -5 -83 -6 0 -140 73 -165 90 -8 6 -26 15 -40 22 -14 7 -32 17 -40 24 -8 6 -40 25 -70 41 -30 17 -76 42 -102 57 -26 14 -50 26 -53 26 -8 0 1 -60 25 -170 19 -83 29 -143 69 -385 29 -176 59 -400 66 -480 3 -38 8 -85 11 -102 5 -28 3 -33 -12 -33 -61 0 -363 -104 -504 -174 -82 -41 -88 -44 -173 -98 -32 -21 -61 -38 -64 -38 -4 0 -13 -7 -22 -15 -9 -9 -52 -44 -97 -78 -82 -64 -284 -260 -284 -277 0 -6 -4 -10 -9 -10 -9 0 -130 -160 -152 -201 -6 -13 -15 -26 -18 -29 -25 -20 -155 -291 -186 -390 -10 -30 -24 -69 -31 -86 -7 -18 -16 -48 -19 -68 l-7 -36 -238 0 -238 0 -46 -81 c-25 -45 -46 -87 -46 -94 0 -8 -4 -15 -9 -17 -10 -4 -151 -293 -151 -311 0 -7 -7 -21 -15 -31 -8 -11 -15 -26 -15 -33 0 -7 -8 -32 -18 -56 -32 -71 -62 -152 -62 -163 0 -6 -8 -33 -19 -60 -30 -80 -90 -299 -114 -419 -78 -388 -92 -528 -92 -905 0 -328 10 -458 56 -720 32 -184 81 -397 115 -505 61 -187 100 -295 149 -410 67 -158 102 -234 117 -257 10 -14 18 -32 18 -40 0 -8 4 -18 9 -24 5 -5 18 -25 28 -44 75 -136 98 -176 103 -180 4 -3 9 -12 13 -20 4 -8 17 -31 29 -51 13 -19 37 -57 53 -83 36 -59 235 -325 290 -390 67 -79 186 -207 255 -276 84 -84 220 -210 226 -210 3 0 19 -13 35 -29 40 -41 197 -161 209 -161 6 0 10 -4 10 -8 0 -10 87 -72 100 -72 6 0 10 -4 10 -8 0 -7 143 -102 222 -147 9 -5 58 -34 107 -62 50 -29 95 -53 100 -53 5 0 16 -6 23 -12 7 -7 34 -22 58 -34 73 -34 163 -75 195 -89 17 -7 50 -22 73 -34 24 -11 49 -21 55 -21 7 0 23 -6 37 -13 14 -7 57 -24 95 -36 39 -13 93 -32 120 -41 101 -36 274 -84 441 -122 l102 -24 73 -89 c40 -50 96 -113 124 -142 49 -50 54 -52 141 -67 117 -21 192 -32 344 -52 149 -20 632 -30 765 -16 50 5 92 5 93 0 6 -14 81 -9 155 11 67 18 178 43 322 71 123 24 151 30 205 45 141 40 293 88 380 120 78 29 182 71 255 104 49 23 54 23 302 16 l253 -8 0 139 c0 154 -4 143 74 182 l28 15 104 -104 103 -103 180 181 c100 99 181 183 181 187 0 3 -34 40 -75 81 -41 41 -75 78 -75 83 0 10 17 30 51 60 l27 24 63 -21 c166 -53 319 -78 319 -51 0 5 8 17 18 27 34 34 142 171 142 181 0 6 3 12 8 14 4 1 23 28 42 58 19 30 37 57 41 60 3 3 14 19 23 35 9 17 26 46 38 65 11 19 37 64 56 100 19 36 39 69 43 74 5 6 9 17 9 25 0 9 18 36 40 61 47 54 32 35 155 194 55 70 105 136 110 144 6 9 15 21 21 27 6 5 26 33 45 60 18 28 36 51 41 53 4 2 8 10 8 17 0 8 6 18 13 22 7 4 29 30 48 58 18 27 38 54 42 60 24 30 148 208 172 247 5 9 25 37 42 63 18 25 33 50 33 55 0 4 3 10 8 12 10 4 62 85 62 96 0 5 9 17 20 27 11 10 20 24 20 30 0 7 7 18 16 25 8 8 22 27 29 44 8 17 32 63 54 101 47 81 131 251 131 264 0 5 9 28 19 52 33 75 47 190 32 251 -29 113 -100 215 -253 362 -121 116 -148 150 -148 186 0 43 54 112 152 196 51 44 104 89 118 101 14 13 30 26 35 30 84 65 151 119 155 124 3 4 46 39 95 79 50 39 94 78 98 86 4 8 12 14 17 14 13 0 76 57 215 195 170 169 185 189 236 295 58 121 31 229 -96 387 -35 44 -97 106 -137 139 -40 32 -77 65 -81 71 -4 7 -14 13 -22 13 -7 0 -15 4 -17 8 -4 10 -154 112 -165 112 -4 1 -19 10 -32 21 -22 18 -25 29 -25 87 -1 73 26 180 56 224 10 14 18 30 18 35 0 4 30 40 65 78 36 39 71 82 78 98 6 15 15 27 19 27 15 0 32 80 31 151 -1 99 -18 137 -130 285 -44 59 -45 68 -9 117 18 24 20 43 20 135 -1 152 -45 286 -122 369 -36 38 -139 93 -175 93 -31 0 -47 35 -47 106 0 70 5 88 77 295 18 53 33 101 33 106 0 5 9 28 20 51 11 22 20 48 20 57 0 9 5 25 10 36 6 10 24 73 40 139 53 212 38 388 -42 506 -32 49 -95 114 -108 114 -5 0 -10 4 -10 9 0 5 -17 17 -37 26 -21 10 -40 21 -43 25 -3 4 -18 13 -35 22 -16 8 -69 36 -117 61 -48 26 -93 47 -100 47 -7 0 -24 9 -38 20 -14 11 -31 20 -38 20 -8 0 -28 7 -45 15 -68 31 -198 64 -322 80 -149 21 -403 16 -515 -9 -79 -18 -221 -64 -235 -77 -5 -5 -17 -9 -27 -9 -9 0 -39 -10 -65 -22 -66 -29 -153 -68 -183 -80 -27 -11 -57 -25 -195 -88 -90 -42 -109 -51 -142 -70 -10 -5 -79 -39 -153 -75 -74 -36 -139 -70 -144 -75 -6 -6 -18 -10 -28 -10 -17 0 -18 14 -18 185 0 168 -2 191 -24 257 -35 105 -59 150 -128 239 -84 108 -272 223 -391 238 l-42 6 -3 1048 -2 1047 -220 0 -220 0 0 -1045 0 -1045 -145 0 -145 0 0 1045 0 1045 -225 0 -225 0 0 -1045 0 -1045 -140 0 -140 0 0 1045 0 1045 -225 0 -225 0 0 -1045 0 -1045 -140 0 -140 0 0 1045 0 1045 -225 0 -225 0 0 -1045z"/>
</g>
<g id="layer102" fill="#874aba" stroke="none">
<path d="M3710 10955 l0 -1045 -72 0 c-112 0 -192 -17 -282 -60 -257 -121 -406 -355 -406 -637 0 -46 -2 -83 -5 -83 -6 0 -140 73 -165 90 -8 6 -26 15 -40 22 -14 7 -32 17 -40 24 -8 6 -40 25 -70 41 -30 17 -76 42 -102 57 -26 14 -50 26 -53 26 -9 0 4 -84 22 -150 9 -30 19 -79 23 -110 4 -30 21 -136 38 -235 37 -223 69 -448 77 -540 3 -38 8 -84 11 -101 5 -30 4 -32 -33 -38 -67 -12 -198 -54 -358 -113 -73 -27 -236 -112 -313 -164 -24 -16 -46 -29 -49 -29 -4 0 -13 -7 -22 -15 -9 -9 -52 -44 -97 -78 -82 -64 -284 -260 -284 -277 0 -6 -4 -10 -9 -10 -9 0 -130 -160 -152 -201 -6 -13 -15 -26 -18 -29 -25 -20 -155 -291 -186 -390 -10 -30 -24 -69 -31 -86 -7 -18 -16 -48 -19 -68 l-7 -36 -238 0 -238 0 -46 -81 c-25 -45 -46 -87 -46 -94 0 -8 -4 -15 -9 -17 -10 -4 -151 -293 -151 -311 0 -7 -7 -21 -15 -31 -8 -11 -15 -26 -15 -33 0 -7 -8 -32 -18 -56 -33 -75 -62 -152 -62 -165 0 -7 -8 -34 -19 -60 -30 -75 -90 -294 -114 -417 -77 -383 -92 -533 -92 -905 0 -235 4 -340 19 -460 21 -174 22 -183 35 -176 5 3 16 -36 25 -87 44 -243 143 -585 245 -842 81 -207 290 -618 349 -687 13 -16 13 -18 -1 -24 -11 -4 -13 -10 -6 -17 20 -25 59 -88 59 -97 0 -5 6 -13 13 -17 6 -4 26 -28 42 -53 35 -53 37 -56 69 -96 14 -17 42 -54 63 -81 71 -94 218 -258 338 -378 93 -93 206 -195 215 -195 5 0 13 -6 17 -14 11 -19 209 -176 223 -176 5 0 10 -4 10 -8 0 -8 85 -72 95 -72 3 0 13 -8 24 -17 21 -21 147 -100 288 -182 49 -29 185 -102 242 -131 22 -11 129 -59 166 -75 17 -7 50 -22 73 -34 24 -11 49 -21 55 -21 7 0 23 -6 37 -13 14 -7 57 -24 95 -36 39 -13 93 -31 120 -41 97 -34 284 -86 441 -122 l102 -24 73 -89 c40 -50 97 -113 125 -142 51 -50 56 -52 141 -67 116 -21 192 -32 343 -52 149 -20 632 -30 765 -16 50 5 92 5 93 0 6 -14 81 -9 155 11 67 18 178 43 322 71 123 24 151 30 205 45 141 40 293 88 380 120 78 29 182 71 255 104 49 23 54 23 302 16 l253 -8 0 139 c0 154 -4 143 74 182 l28 15 104 -104 103 -103 180 181 c100 99 181 183 181 187 0 3 -34 40 -75 81 -41 41 -75 78 -75 83 0 10 17 30 51 60 l27 24 63 -21 c166 -53 319 -78 319 -51 0 5 8 17 18 27 34 34 142 171 142 181 0 6 3 12 8 14 4 1 23 28 42 58 19 30 37 57 41 60 3 3 14 19 23 35 9 17 26 46 38 65 11 19 37 64 56 100 19 36 39 69 43 74 5 6 9 17 9 25 0 9 18 36 40 61 47 54 32 35 155 194 55 70 105 136 110 144 6 9 15 21 21 27 6 5 26 33 45 60 18 28 36 51 41 53 4 2 8 10 8 17 0 8 6 18 13 22 7 4 29 30 48 58 18 27 38 54 42 60 24 30 148 208 172 247 5 9 25 37 42 63 18 25 33 50 33 55 0 4 3 10 8 12 10 4 62 85 62 97 0 5 7 15 16 22 9 7 20 22 25 34 5 11 23 43 41 70 62 100 188 343 188 363 0 5 9 29 19 53 33 75 47 190 32 251 -29 113 -100 215 -253 362 -121 116 -148 150 -148 186 0 38 51 109 122 171 35 29 68 58 74 64 6 5 30 26 53 45 24 19 48 40 54 45 7 6 35 28 62 50 51 41 62 49 92 75 9 8 56 46 103 83 47 38 89 75 93 83 4 8 12 14 17 14 24 0 298 266 370 360 31 41 70 102 85 135 35 77 32 162 -9 246 -39 81 -143 207 -228 275 -40 32 -77 65 -81 71 -4 7 -14 13 -22 13 -7 0 -15 4 -17 8 -4 10 -154 112 -165 112 -4 1 -19 10 -32 21 -22 18 -25 29 -25 87 -1 72 25 172 60 235 11 20 47 67 80 102 104 115 127 164 127 270 0 70 -4 87 -31 140 -17 33 -49 85 -72 115 -81 111 -76 95 -44 142 28 39 29 45 27 152 -4 245 -104 407 -278 450 -55 14 -65 32 -65 111 0 60 8 96 51 221 28 82 53 158 56 169 3 11 14 39 24 62 10 24 19 49 19 57 0 7 7 29 14 48 8 19 27 86 41 149 23 97 26 131 23 229 -5 128 -29 205 -89 284 -34 43 -116 113 -159 133 -14 7 -41 23 -60 34 -45 28 -188 100 -265 134 -33 15 -67 30 -75 34 -15 8 -120 40 -150 46 -8 2 -15 4 -15 5 0 3 -41 9 -104 15 -36 4 -69 8 -73 11 -11 7 -359 7 -398 0 -19 -4 -48 -9 -65 -11 -16 -2 -30 -4 -30 -5 0 -1 -11 -3 -25 -4 -14 -2 -42 -10 -62 -19 -21 -9 -44 -17 -53 -17 -9 0 -29 -7 -45 -15 -17 -9 -30 -12 -30 -8 0 5 -4 2 -8 -4 -5 -7 -20 -14 -35 -15 -15 -1 -27 -6 -27 -11 0 -4 -4 -5 -10 -2 -5 3 -10 1 -10 -4 0 -6 -20 -16 -45 -22 -24 -6 -50 -17 -56 -25 -6 -8 -18 -14 -25 -14 -12 0 -37 -10 -169 -70 -27 -13 -53 -22 -57 -22 -5 1 -8 -3 -8 -8 0 -6 -5 -10 -11 -10 -6 0 -81 -35 -167 -77 -86 -43 -161 -78 -167 -78 -5 0 -19 -8 -29 -17 -11 -10 -23 -18 -28 -18 -17 0 -24 -3 -48 -19 -14 -9 -37 -22 -51 -28 l-27 -12 -4 192 c-5 173 -8 200 -31 272 -51 156 -152 289 -282 371 -41 26 -75 51 -75 55 0 5 -6 6 -12 4 -7 -3 -40 6 -72 19 -33 13 -65 22 -72 19 -6 -2 -15 0 -18 6 -4 6 -13 8 -21 4 -13 -4 -15 17 -15 143 0 100 4 144 10 134 6 -10 10 306 10 903 l0 917 -220 0 -220 0 0 -1045 0 -1045 -145 0 -145 0 0 1045 0 1045 -225 0 -225 0 0 -1045 0 -1045 -140 0 -140 0 0 1045 0 1045 -225 0 -225 0 0 -1045 0 -1045 -140 0 -140 0 0 1045 0 1045 -225 0 -225 0 0 -1045z"/>
</g>
<g id="layer103" fill="#706fc8" stroke="none">
<path d="M3710 10955 l0 -1045 -62 -2 c-35 0 -74 -3 -88 -4 -14 -2 -38 -5 -55 -7 -16 -1 -36 -6 -42 -10 -7 -5 -17 -5 -23 -2 -5 3 -10 2 -10 -3 0 -5 -6 -9 -14 -9 -39 0 -181 -83 -247 -145 -83 -78 -180 -236 -194 -318 -3 -19 -10 -51 -15 -70 -6 -19 -10 -74 -10 -122 0 -49 -2 -88 -5 -88 -6 0 -140 73 -165 90 -8 6 -26 15 -40 22 -14 7 -32 17 -40 24 -8 6 -40 25 -70 41 -30 17 -76 42 -102 57 -26 14 -50 26 -53 26 -9 0 4 -84 22 -150 9 -30 19 -79 23 -110 4 -30 22 -135 39 -233 17 -98 34 -200 36 -227 3 -26 12 -85 21 -131 8 -46 16 -89 16 -96 1 -7 5 -10 9 -8 3 3 13 -44 21 -103 11 -88 12 -108 1 -115 -7 -4 -17 -6 -22 -2 -5 3 -12 1 -16 -5 -4 -6 -10 -8 -15 -5 -4 2 -33 -4 -65 -15 -32 -11 -61 -17 -66 -14 -5 3 -9 0 -9 -6 0 -6 -4 -9 -9 -6 -5 3 -25 -1 -44 -9 -19 -8 -37 -11 -41 -8 -3 4 -6 0 -6 -7 0 -7 -3 -11 -6 -7 -4 3 -24 -3 -45 -14 -21 -10 -50 -20 -64 -21 -14 -1 -25 -6 -25 -11 0 -4 -4 -5 -10 -2 -5 3 -10 1 -10 -6 0 -7 -3 -9 -7 -6 -3 4 -12 -1 -20 -11 -8 -9 -12 -12 -9 -5 5 8 0 8 -19 0 -14 -7 -25 -15 -25 -19 0 -5 -8 -8 -19 -8 -10 0 -24 -6 -30 -14 -6 -8 -34 -23 -61 -35 -28 -12 -50 -26 -50 -32 0 -6 -5 -7 -10 -4 -6 3 -10 1 -10 -6 0 -7 -3 -9 -7 -6 -3 4 -17 -3 -30 -15 -13 -12 -23 -18 -23 -15 0 4 -8 -1 -19 -10 -21 -21 -61 -52 -116 -91 -37 -27 -265 -248 -265 -257 0 -5 -27 -39 -50 -64 -9 -9 -31 -39 -50 -66 -19 -27 -41 -56 -48 -63 -6 -7 -12 -17 -12 -22 0 -5 -6 -15 -13 -22 -6 -8 -19 -27 -28 -43 -50 -97 -69 -133 -81 -162 -7 -18 -16 -33 -21 -33 -4 0 -7 -6 -5 -12 1 -7 -5 -26 -14 -43 -8 -16 -13 -36 -10 -44 2 -8 1 -11 -4 -8 -5 3 -10 -7 -11 -21 -1 -15 -15 -70 -31 -122 l-30 -95 -246 -3 -247 -2 -15 -33 c-8 -17 -28 -52 -44 -77 -15 -25 -29 -52 -29 -62 -1 -9 -5 -18 -10 -20 -6 -2 -99 -183 -106 -208 -1 -3 -9 -22 -19 -42 -9 -21 -17 -41 -17 -45 0 -5 -9 -22 -20 -40 -15 -23 -16 -32 -7 -36 10 -4 10 -6 1 -6 -7 -1 -13 -13 -13 -27 0 -14 -4 -23 -9 -20 -5 4 -7 -4 -3 -16 3 -14 1 -19 -6 -14 -6 3 -14 1 -18 -5 -4 -8 -3 -9 4 -5 16 10 16 9 -18 -91 -97 -278 -178 -650 -217 -983 -23 -209 -23 -643 1 -855 59 -522 194 -992 416 -1443 78 -160 189 -360 218 -394 13 -16 13 -18 -1 -24 -11 -4 -13 -10 -6 -17 20 -25 59 -88 59 -97 0 -5 6 -13 13 -17 6 -4 26 -28 42 -53 35 -53 37 -56 69 -96 14 -17 42 -54 63 -81 71 -94 218 -258 338 -378 93 -93 206 -195 215 -195 5 0 13 -6 17 -14 11 -19 209 -176 223 -176 5 0 10 -4 10 -8 0 -8 85 -72 95 -72 3 0 13 -8 24 -17 21 -21 147 -100 288 -182 49 -29 185 -102 242 -131 22 -11 129 -59 166 -75 17 -7 50 -22 73 -34 24 -11 49 -21 55 -21 7 0 23 -6 37 -13 14 -7 57 -24 95 -36 39 -13 93 -31 120 -41 97 -34 284 -86 441 -122 l102 -24 73 -89 c40 -50 97 -113 125 -142 51 -50 56 -52 141 -67 116 -21 192 -32 343 -52 149 -20 632 -30 765 -16 50 5 92 5 93 0 6 -14 81 -9 155 11 67 18 178 43 322 71 123 24 151 30 205 45 141 40 293 88 380 120 78 29 182 71 255 104 49 23 54 23 302 16 l253 -8 0 139 c0 154 -4 143 74 182 l28 15 104 -104 103 -103 180 181 c100 99 181 183 181 187 0 3 -34 40 -75 81 -41 41 -75 78 -75 83 0 10 17 30 51 60 l27 24 63 -21 c166 -53 319 -78 319 -51 0 5 8 17 18 27 34 34 142 171 142 181 0 6 3 12 8 14 4 1 23 28 42 58 19 30 37 57 41 60 3 3 14 19 23 35 9 17 26 46 38 65 11 19 37 64 56 100 19 36 39 69 43 74 5 6 9 17 9 25 0 9 18 36 40 61 47 54 32 35 155 194 55 70 105 136 110 144 6 9 15 21 21 27 6 5 26 33 45 60 18 28 36 51 41 53 4 2 8 10 8 17 0 8 6 18 13 22 7 4 29 30 48 58 18 27 38 54 42 60 24 30 148 208 172 247 5 9 25 37 42 63 18 25 33 50 33 55 0 4 3 10 8 12 10 4 62 85 62 97 0 5 7 15 16 22 9 7 20 22 25 34 5 11 23 43 41 70 62 100 188 343 188 363 0 5 9 29 19 53 33 75 47 190 32 251 -29 113 -100 215 -253 362 -121 116 -148 150 -148 186 0 38 51 109 122 171 35 29 68 58 74 64 6 5 30 26 53 45 24 19 48 40 54 45 7 6 35 28 62 50 51 41 62 49 92 75 9 8 56 46 103 83 47 38 89 75 93 83 4 8 12 14 17 14 24 0 298 266 370 360 31 41 70 102 85 135 35 77 32 162 -9 246 -39 81 -143 207 -228 275 -40 32 -77 65 -81 71 -4 7 -14 13 -22 13 -7 0 -15 4 -17 8 -4 10 -154 112 -165 112 -4 1 -19 10 -32 21 -22 18 -25 29 -25 87 -1 72 25 172 60 235 11 20 47 67 80 102 104 115 127 164 127 270 0 70 -4 87 -31 140 -17 33 -49 85 -72 115 -81 111 -76 95 -44 142 28 39 29 45 27 152 -4 245 -104 407 -278 450 -55 14 -65 32 -65 111 0 60 8 96 51 221 28 82 53 158 56 169 3 11 14 39 24 62 10 24 19 49 19 57 0 7 7 29 14 48 8 19 27 86 41 149 23 97 26 131 23 229 -5 128 -29 205 -89 284 -34 43 -116 113 -159 133 -14 7 -41 23 -60 34 -45 28 -188 100 -265 134 -33 15 -67 30 -75 34 -15 8 -120 40 -150 46 -8 2 -15 4 -15 5 0 3 -41 9 -104 15 -36 4 -69 8 -73 11 -11 7 -359 7 -398 0 -19 -4 -48 -9 -65 -11 -16 -2 -30 -4 -30 -5 0 -1 -11 -3 -25 -4 -14 -2 -42 -10 -62 -19 -21 -9 -44 -17 -53 -17 -9 0 -29 -7 -45 -15 -17 -9 -30 -12 -30 -8 0 5 -4 2 -8 -4 -5 -7 -20 -14 -35 -15 -15 -1 -27 -6 -27 -11 0 -4 -4 -5 -10 -2 -5 3 -10 1 -10 -4 0 -6 -20 -16 -45 -22 -24 -6 -50 -17 -56 -25 -6 -8 -18 -14 -25 -14 -12 0 -37 -10 -169 -70 -27 -13 -53 -22 -57 -22 -5 1 -8 -3 -8 -8 0 -6 -5 -10 -11 -10 -6 0 -81 -35 -167 -77 -86 -43 -161 -78 -167 -78 -5 0 -19 -8 -29 -17 -11 -10 -23 -18 -28 -18 -17 0 -24 -3 -48 -19 -14 -9 -37 -22 -51 -28 l-27 -12 -4 192 c-5 173 -8 200 -31 272 -52 158 -151 287 -286 374 -44 28 -84 51 -89 51 -5 0 -31 9 -57 21 -26 11 -61 22 -78 23 -18 2 -38 4 -44 5 -10 1 -13 218 -13 1051 l0 1050 -212 0 -211 0 9 -217 c10 -242 14 -1456 6 -1710 l-5 -163 -158 0 -159 0 0 754 c0 493 3 757 10 761 6 4 10 112 10 291 l0 284 -225 0 -225 0 1 -522 c1 -288 4 -512 8 -498 13 43 23 -495 15 -789 l-7 -281 -159 0 -159 0 6 388 c2 213 7 683 10 1045 l6 657 -226 0 -225 0 0 -871 c0 -577 3 -868 10 -864 7 4 10 -57 10 -174 l0 -181 -150 0 -150 0 0 1045 0 1045 -225 0 -225 0 0 -1045z"/>
</g>
<g id="layer104" fill="#598dd9" stroke="none">
<path d="M3710 10955 l0 -1045 -62 -2 c-35 0 -74 -3 -88 -4 -14 -2 -38 -5 -55 -7 -16 -1 -36 -6 -42 -10 -7 -5 -17 -5 -23 -2 -5 3 -10 2 -10 -3 0 -5 -6 -9 -14 -9 -39 0 -181 -83 -247 -145 -83 -78 -180 -236 -194 -318 -3 -19 -10 -51 -15 -70 -6 -19 -10 -74 -10 -122 0 -49 -2 -88 -5 -88 -6 0 -140 73 -165 90 -8 6 -26 15 -40 22 -14 7 -32 17 -40 24 -8 6 -40 25 -70 41 -30 17 -76 42 -102 57 -26 14 -50 26 -53 26 -9 0 4 -84 22 -150 9 -30 19 -79 23 -110 4 -30 22 -135 39 -233 17 -98 34 -200 36 -227 3 -26 12 -85 21 -131 8 -46 16 -89 16 -96 1 -7 5 -10 9 -8 3 3 13 -44 21 -103 11 -88 12 -108 1 -115 -7 -4 -17 -6 -22 -2 -5 3 -12 1 -16 -5 -4 -6 -10 -8 -15 -5 -4 2 -33 -4 -65 -15 -32 -11 -61 -17 -66 -14 -5 3 -9 0 -9 -6 0 -6 -4 -9 -9 -6 -5 3 -25 -1 -44 -9 -19 -8 -37 -11 -41 -8 -3 4 -6 0 -6 -7 0 -7 -3 -11 -6 -7 -4 3 -24 -3 -45 -14 -21 -10 -50 -20 -64 -21 -14 -1 -25 -6 -25 -11 0 -4 -4 -5 -10 -2 -5 3 -10 1 -10 -6 0 -7 -3 -9 -7 -6 -3 4 -12 -1 -20 -11 -8 -9 -12 -12 -9 -5 5 8 0 8 -19 0 -14 -7 -25 -15 -25 -19 0 -5 -8 -8 -19 -8 -10 0 -24 -6 -30 -14 -6 -8 -34 -23 -61 -35 -28 -12 -50 -26 -50 -32 0 -6 -5 -7 -10 -4 -6 3 -10 1 -10 -6 0 -7 -3 -9 -7 -6 -3 4 -17 -3 -30 -15 -13 -12 -23 -18 -23 -15 0 4 -8 -1 -19 -10 -21 -21 -61 -52 -116 -91 -37 -27 -265 -248 -265 -257 0 -5 -27 -39 -50 -64 -9 -9 -31 -39 -50 -66 -19 -27 -41 -56 -48 -63 -6 -7 -12 -17 -12 -22 0 -5 -6 -15 -13 -22 -6 -8 -19 -27 -28 -43 -50 -97 -69 -133 -81 -162 -7 -18 -16 -33 -21 -33 -4 0 -7 -6 -5 -12 1 -7 -5 -26 -14 -43 -8 -16 -13 -36 -10 -44 2 -8 1 -11 -4 -8 -5 3 -10 -7 -11 -21 -1 -15 -15 -70 -31 -122 l-30 -95 -246 -3 -247 -2 -15 -33 c-8 -17 -28 -52 -44 -77 -15 -25 -29 -52 -29 -62 -1 -9 -5 -18 -10 -20 -6 -2 -99 -183 -106 -208 -1 -3 -9 -22 -19 -42 -9 -21 -17 -41 -17 -45 0 -5 -9 -22 -20 -40 -15 -23 -16 -32 -7 -36 10 -4 10 -6 1 -6 -7 -1 -13 -13 -13 -27 0 -14 -4 -23 -9 -20 -5 4 -7 -4 -3 -16 3 -14 1 -19 -6 -14 -6 3 -14 1 -18 -5 -4 -8 -3 -9 4 -5 16 10 16 11 -23 -106 -55 -159 -139 -488 -160 -618 -3 -25 -9 -58 -12 -75 -3 -16 -7 -40 -8 -52 -2 -11 -6 -30 -10 -42 -13 -43 7 -43 51 0 l43 42 -4 -34 c-27 -219 -30 -284 -30 -619 1 -324 3 -382 23 -520 72 -498 192 -886 406 -1320 91 -183 129 -254 162 -297 13 -17 24 -35 24 -38 0 -4 26 -46 57 -93 138 -209 277 -384 460 -581 24 -25 43 -50 43 -55 0 -6 -10 -20 -22 -33 l-22 -24 75 -75 c241 -245 603 -512 956 -704 44 -24 65 -43 72 -62 6 -17 17 -28 29 -28 10 0 50 -15 88 -34 113 -56 357 -156 381 -156 6 0 32 -8 59 -19 87 -32 230 -72 445 -124 l97 -23 73 -90 c40 -49 97 -112 125 -141 51 -50 56 -52 141 -67 116 -21 192 -32 343 -52 149 -20 632 -30 765 -16 50 5 92 5 93 0 6 -14 72 -9 151 11 74 19 202 47 326 71 123 24 151 30 205 45 141 40 293 88 380 120 78 29 182 71 255 104 49 23 54 23 302 16 l253 -8 0 139 c0 154 -4 143 74 182 l28 15 104 -104 103 -103 180 181 c100 99 181 183 181 187 0 3 -34 40 -75 81 -41 41 -75 78 -75 83 0 10 17 30 51 60 l27 24 63 -21 c162 -52 319 -78 319 -53 0 5 14 24 31 43 17 19 49 59 72 89 23 30 45 57 50 58 4 2 7 10 7 17 0 7 3 15 8 17 4 1 23 28 42 58 19 30 37 57 41 60 3 3 14 19 23 35 9 17 26 46 38 65 11 19 37 64 56 100 19 36 39 69 43 74 5 6 9 17 9 25 0 9 18 36 40 61 47 54 32 35 155 194 55 70 105 136 110 144 6 9 15 21 21 27 6 5 26 33 45 60 18 28 36 51 41 53 4 2 8 10 8 17 0 8 6 18 13 22 7 4 29 30 48 58 18 27 38 54 42 60 24 30 148 208 172 247 5 9 25 37 42 63 18 25 33 50 33 55 0 4 3 10 8 12 10 4 62 85 62 97 0 5 7 15 16 22 9 7 20 22 25 34 5 11 23 43 41 70 62 100 188 343 188 363 0 5 9 29 19 53 33 75 47 190 32 251 -29 113 -100 215 -253 362 -121 116 -148 150 -148 186 0 38 51 109 122 171 35 29 68 58 74 64 6 5 30 26 53 45 24 19 48 40 54 45 7 6 35 28 62 50 51 41 62 49 92 75 9 8 56 46 103 83 47 38 89 75 93 83 4 8 12 14 17 14 24 0 307 275 371 362 109 146 133 243 87 351 -41 100 -149 232 -263 322 -27 22 -54 46 -58 53 -4 6 -14 12 -22 12 -7 0 -15 4 -17 8 -4 10 -154 112 -165 112 -4 1 -19 10 -32 21 -22 18 -25 29 -25 87 -1 72 25 172 60 235 11 20 47 67 80 102 104 115 127 164 127 270 0 70 -4 87 -31 140 -17 33 -49 85 -72 115 -81 111 -76 95 -44 142 28 39 29 45 27 152 -1 87 -7 126 -25 181 -47 138 -106 216 -180 235 -21 6 -38 15 -38 21 0 6 -4 7 -10 4 -5 -3 -16 -3 -22 2 -7 4 -22 8 -33 8 -11 0 -20 5 -20 10 0 6 -4 17 -9 24 -5 8 -9 38 -9 65 1 48 1 49 -7 16 -6 -25 -8 -11 -4 45 4 66 19 123 89 330 111 328 128 401 129 540 1 253 -78 351 -419 520 l-137 67 -31 -30 c-32 -30 -32 -30 -72 -15 -22 8 -89 29 -150 45 -108 30 -113 31 -350 30 -239 0 -240 0 -335 -30 -119 -38 -218 -75 -286 -107 -29 -14 -55 -25 -58 -25 -6 0 -50 -20 -206 -92 -138 -63 -745 -370 -840 -424 -30 -17 -91 -51 -135 -74 -89 -48 -109 -60 -257 -145 -56 -33 -111 -64 -121 -70 -89 -51 -269 -173 -348 -237 -150 -121 -310 -307 -420 -488 -22 -36 -44 -72 -49 -80 -18 -29 -140 -282 -140 -291 0 -5 -11 -33 -25 -63 -14 -30 -25 -61 -25 -69 0 -7 -3 -17 -7 -21 -4 -3 -8 -13 -9 -21 -1 -8 -18 -63 -38 -122 -19 -60 -38 -124 -41 -143 -3 -19 -11 -53 -17 -75 -14 -51 -15 -53 -22 -95 -4 -19 -9 -42 -11 -50 -2 -8 -7 -33 -10 -55 -4 -22 -9 -51 -12 -65 -2 -14 -9 -73 -15 -132 l-11 -107 -71 -17 c-39 -9 -87 -24 -106 -32 -19 -8 -44 -16 -56 -18 -12 -2 -39 -11 -60 -20 -22 -9 -40 -16 -42 -15 -1 1 -19 -7 -40 -17 -20 -10 -64 -32 -96 -48 -83 -41 -109 -55 -124 -71 -8 -7 -26 -20 -40 -27 -65 -34 -150 -148 -177 -236 -1 -3 -20 -63 -43 -135 -44 -137 -106 -385 -138 -545 -13 -68 -19 -156 -22 -312 -3 -196 -2 -224 18 -299 11 -45 28 -95 36 -112 l16 -30 -223 -223 c-123 -123 -226 -224 -230 -224 -3 0 -45 38 -93 85 -48 47 -89 85 -92 85 -3 0 -39 -12 -80 -26 l-74 -27 0 -158 0 -159 -235 0 -235 0 -2 166 -3 165 -60 24 c-33 14 -64 25 -70 25 -5 0 -60 -50 -122 -112 l-113 -112 -170 169 -170 170 110 110 111 111 -32 72 -32 72 -153 0 -154 0 0 94 0 94 -292 4 c-161 3 -296 3 -300 1 -5 -2 -8 -590 -8 -1305 l0 -1301 130 -130 131 -130 -28 -29 -28 -29 -36 38 c-20 21 -71 70 -114 108 -42 39 -92 90 -111 114 l-34 44 0 1324 1 1324 -33 27 -32 27 35 6 c18 3 188 4 376 1 l342 -5 3 104 3 104 139 5 138 5 29 80 28 80 -94 95 -95 95 32 33 33 32 -463 0 c-254 0 -462 3 -462 6 0 13 477 978 520 1052 l30 52 -97 0 -97 0 44 45 44 45 84 0 84 0 101 101 c191 191 420 313 687 367 l95 19 8 109 c4 60 6 189 4 286 l-4 177 37 36 37 36 7 -80 c4 -44 6 -187 5 -318 l-2 -238 22 0 c18 0 26 11 45 67 58 175 196 291 378 319 229 35 462 -119 518 -343 l12 -48 218 0 218 0 147 61 c80 34 147 60 149 58 2 -2 15 -30 29 -62 26 -57 27 -58 64 -55 l38 3 3 73 3 72 169 0 170 0 0 -70 c0 -78 3 -80 64 -55 23 10 40 25 46 43 6 15 14 34 20 42 5 8 21 40 35 70 14 30 51 108 83 172 31 65 54 119 52 121 -3 2 -138 79 -300 172 -539 307 -1304 747 -1347 775 l-42 27 29 28 29 28 57 -33 c31 -17 82 -46 113 -62 70 -38 504 -283 1267 -717 128 -72 236 -131 242 -131 5 0 26 26 47 58 115 173 268 345 410 459 94 75 286 199 510 328 147 85 195 111 386 214 36 20 84 46 107 59 l42 22 0 190 c0 222 -13 300 -67 403 -74 140 -199 246 -345 292 -76 24 -90 25 -337 25 -142 0 -495 3 -786 7 l-528 6 51 49 51 49 6 382 c3 210 7 678 10 1040 l6 657 -226 0 -225 0 0 -871 c0 -577 3 -868 10 -864 7 4 10 -57 10 -174 l0 -181 -150 0 -150 0 0 1045 0 1045 -225 0 -225 0 0 -1045z m1816 -1410 c57 -25 116 -81 147 -140 17 -32 21 -58 22 -130 0 -79 -3 -96 -27 -141 -30 -57 -77 -103 -141 -136 -61 -33 -193 -33 -258 0 -62 31 -116 86 -145 147 -28 59 -33 181 -10 236 70 166 249 237 412 164z m731 4 c54 -26 116 -87 145 -141 18 -35 22 -60 23 -133 0 -79 -3 -96 -27 -141 -117 -223 -437 -216 -548 11 -34 69 -34 178 -2 250 40 87 117 152 209 175 53 13 150 3 200 -21z m-1457 -4 c48 -25 119 -94 143 -140 17 -32 21 -58 22 -130 0 -79 -3 -96 -27 -141 -30 -57 -77 -103 -141 -136 -61 -33 -193 -33 -257 1 -61 32 -107 76 -138 136 -23 43 -26 62 -26 140 0 78 3 96 23 130 47 78 120 139 186 156 48 13 178 3 215 -16z m-584 -335 c-15 -60 -54 -128 -92 -162 -39 -34 -117 -68 -157 -68 l-40 0 23 25 c13 14 27 25 32 25 5 0 29 9 53 20 49 22 106 87 124 140 11 33 60 94 69 86 2 -2 -3 -32 -12 -66z m-2676 -5575 l0 -925 -30 0 -30 0 0 925 0 925 30 0 30 0 0 -925z m1022 -336 c116 -12 199 -43 244 -90 l28 -29 -24 -25 c-23 -25 -24 -25 -44 -6 -46 44 -111 62 -239 68 -252 12 -387 -40 -387 -148 0 -32 7 -46 38 -77 50 -50 146 -74 293 -74 l102 1 -44 -46 -44 -45 -73 6 c-141 11 -260 57 -301 115 -57 79 -48 195 20 261 62 60 116 77 316 99 7 0 59 -4 115 -10z m-372 -712 c0 -50 -3 -55 -50 -102 -46 -46 -50 -47 -50 -25 0 14 9 47 19 75 11 27 23 62 26 78 4 21 11 27 30 27 23 0 25 -3 25 -53z m-394 -133 c67 -53 78 -76 78 -154 0 -62 -3 -73 -30 -107 -16 -21 -56 -51 -88 -67 l-57 -29 -56 17 c-167 53 -195 260 -48 352 34 21 50 24 102 22 51 -3 69 -9 99 -34z"/>
<path d="M1623 2420 c-68 -41 -90 -118 -53 -189 43 -86 155 -97 230 -21 18 18 25 37 28 80 4 49 1 60 -23 88 -53 63 -122 79 -182 42z m136 -51 c63 -63 28 -156 -61 -166 -43 -5 -50 -3 -79 26 -29 29 -31 36 -26 79 10 91 103 125 166 61z"/>
<path d="M1655 2334 c-20 -20 -16 -63 7 -78 29 -18 72 4 76 39 6 48 -48 73 -83 39z"/>
<path d="M3197 7491 c-148 -49 -251 -174 -264 -320 l-6 -58 -141 -6 c-300 -13 -546 -117 -784 -332 -97 -88 -196 -234 -297 -440 -197 -403 -355 -727 -355 -731 0 -2 197 -4 437 -4 l438 0 95 95 95 95 84 -84 83 -84 83 39 c46 22 88 39 94 39 7 0 11 42 13 118 l3 117 243 3 242 2 0 -109 0 -109 38 -13 c20 -6 65 -25 100 -40 34 -16 66 -29 70 -29 4 0 41 34 82 75 69 70 76 74 89 58 12 -17 13 -16 7 5 -3 12 -9 30 -12 40 -4 15 2 22 28 31 18 7 44 19 58 26 14 7 37 15 52 19 22 5 26 10 22 33 -3 15 -7 30 -10 35 -3 4 -45 8 -95 8 l-89 0 0 170 0 169 93 3 92 3 3 31 c3 30 1 32 -78 64 -72 29 -80 35 -74 54 8 26 78 196 104 253 l19 42 36 -15 c20 -8 58 -23 85 -34 l48 -19 17 26 c17 25 17 26 -44 87 -34 34 -61 66 -61 71 0 5 51 60 112 122 l113 113 -186 0 -186 0 -11 66 c-6 37 -23 92 -38 122 -80 163 -278 249 -447 193z m235 -101 c75 -28 122 -71 158 -143 42 -87 47 -139 21 -226 -44 -146 -191 -237 -336 -210 -74 14 -130 45 -180 101 -72 80 -92 181 -59 296 21 71 105 160 174 185 64 22 158 21 222 -3z m-682 -459 c0 -28 -1 -28 -69 -35 -233 -21 -440 -122 -602 -292 -54 -58 -79 -94 -209 -299 -35 -55 -87 -136 -115 -180 -28 -44 -78 -121 -110 -172 -50 -78 -61 -91 -76 -82 -10 5 -20 13 -23 17 -3 4 19 44 47 88 29 45 81 127 117 183 254 399 269 420 355 507 170 173 351 255 630 288 17 1 36 4 43 5 7 0 12 -11 12 -28z"/>
<path d="M4730 7165 l0 -85 -27 0 c-16 0 -63 -9 -106 -19 l-78 -19 -9 22 c-4 11 -19 47 -33 78 l-26 57 -63 -25 c-35 -14 -66 -29 -70 -32 -4 -4 7 -38 23 -76 16 -38 28 -73 27 -77 -2 -5 -42 -35 -90 -67 l-87 -60 -57 60 -57 60 -56 -56 -56 -56 58 -58 59 -59 -59 -90 -59 -89 -77 32 -78 33 -23 -53 c-42 -94 -42 -91 11 -111 27 -10 62 -24 79 -31 l32 -13 -19 -73 c-10 -39 -19 -87 -19 -105 l0 -33 -90 0 -90 0 0 -80 0 -80 88 0 89 0 1 -27 c1 -32 16 -104 30 -150 10 -32 10 -32 -36 -49 -26 -10 -51 -21 -56 -26 -6 -4 -18 -8 -27 -8 -29 0 -31 -17 -10 -66 12 -26 21 -52 21 -58 0 -7 5 -17 11 -23 12 -12 11 -12 111 31 48 21 50 21 76 -19 12 -19 27 -35 34 -35 6 0 9 3 6 6 -3 3 5 34 18 70 12 35 22 64 20 64 -2 0 10 37 26 83 35 96 34 91 18 187 -14 84 -8 200 15 276 8 27 14 52 14 57 0 23 88 171 134 225 96 113 205 182 352 223 85 23 212 30 297 16 55 -9 56 -8 75 77 7 34 16 70 19 81 10 33 10 70 -1 71 -5 0 -32 4 -60 9 -27 5 -53 8 -57 7 -5 -1 -8 36 -8 83 l0 85 -80 0 -80 0 0 -85z"/>
<path d="M4695 6649 c-55 -13 -53 -11 -123 -47 -145 -75 -228 -184 -272 -356 -22 -86 -25 -116 -11 -116 4 0 26 12 47 26 50 34 224 125 224 118 0 -4 11 1 25 10 14 9 92 38 172 65 144 47 148 49 149 77 2 34 12 109 19 144 16 73 15 78 -17 84 -43 8 -165 5 -213 -5z"/>
<path d="M2870 5740 c0 -87 -2 -101 -17 -106 -72 -22 -161 -61 -214 -94 l-64 -39 -75 75 c-42 41 -80 74 -85 74 -5 0 -56 -46 -112 -102 l-103 -103 87 -87 86 -87 -31 -68 c-17 -37 -39 -101 -49 -140 l-17 -73 -133 0 -133 0 0 -150 0 -150 144 0 143 0 23 -62 c13 -35 36 -86 51 -114 16 -28 29 -56 29 -62 0 -7 -46 -57 -102 -113 l-101 -100 108 -109 108 -108 104 106 c96 100 124 118 143 93 8 -10 89 -47 147 -67 l53 -19 2 -150 3 -150 153 -3 152 -3 0 151 c0 125 2 150 15 150 23 0 167 49 192 65 12 8 28 15 35 15 7 0 57 -44 110 -97 l98 -98 113 113 112 112 -93 88 c-51 48 -92 91 -92 96 0 5 6 17 14 25 19 21 92 169 100 204 6 25 10 27 56 27 l50 0 2 130 c1 72 2 142 2 158 1 25 -2 27 -41 30 -32 2 -43 7 -43 20 0 34 -50 175 -80 229 l-32 55 71 70 c39 38 71 72 71 76 0 4 -48 53 -106 110 l-105 103 -68 -69 -67 -69 -70 35 c-79 40 -194 82 -224 82 -19 0 -20 6 -20 100 l0 100 -150 0 -150 0 0 -100z m315 -350 c17 -7 41 -17 55 -22 14 -6 32 -14 40 -19 8 -5 25 -13 37 -18 20 -9 125 -110 148 -143 14 -18 40 -73 65 -131 31 -75 29 -253 -5 -342 -88 -235 -317 -372 -561 -336 -72 11 -195 55 -202 73 -2 4 -8 8 -14 8 -15 0 -138 122 -138 137 0 6 -3 13 -7 15 -17 7 -53 88 -68 149 -44 187 5 362 139 494 74 73 143 113 238 140 62 18 226 15 273 -5z"/>
<path d="M2950 5307 c-330 -77 -452 -487 -214 -721 87 -86 184 -126 304 -126 179 0 332 103 402 272 18 43 22 73 22 158 1 99 -1 109 -33 175 -40 82 -131 177 -198 206 -24 10 -44 18 -46 18 -1 0 -15 5 -32 11 -46 18 -144 21 -205 7z m180 -49 c126 -33 252 -154 275 -266 8 -34 6 -169 -2 -202 -28 -116 -133 -223 -255 -262 -74 -22 -134 -23 -212 -1 -174 48 -285 206 -274 386 15 235 242 403 468 345z"/>
<path d="M2953 5162 c-128 -45 -204 -155 -199 -282 5 -114 58 -194 166 -251 191 -101 430 67 406 287 -8 73 -27 114 -76 168 -76 82 -196 114 -297 78z"/>
<path d="M3838 5323 l-36 -38 28 -70 c16 -38 29 -77 29 -86 1 -8 8 -24 16 -35 20 -27 32 -7 40 70 4 34 11 78 17 100 9 35 7 41 -18 67 -15 16 -30 29 -34 29 -3 0 -22 -17 -42 -37z"/>
<path d="M3806 4514 l-39 -85 54 -55 c29 -30 58 -54 64 -54 6 0 24 13 38 28 l28 29 -33 111 c-28 96 -35 112 -53 112 -17 0 -29 -18 -59 -86z"/>
</g>
<g id="layer105" fill="#b866c4" stroke="none">
<path d="M3710 10955 l0 -1045 -62 -2 c-35 0 -74 -3 -88 -4 -14 -2 -38 -5 -55 -7 -16 -1 -36 -6 -42 -10 -7 -5 -17 -5 -23 -2 -5 3 -10 2 -10 -3 0 -5 -6 -9 -14 -9 -39 0 -181 -83 -247 -145 -83 -78 -180 -236 -194 -318 -3 -19 -10 -51 -15 -70 -6 -19 -10 -74 -10 -122 0 -49 -2 -88 -5 -88 -6 0 -140 73 -165 90 -8 6 -26 15 -40 22 -14 7 -32 17 -40 24 -8 6 -40 25 -70 41 -30 17 -76 42 -102 57 -26 14 -50 26 -53 26 -9 0 4 -84 22 -150 9 -30 19 -79 23 -110 4 -30 22 -135 39 -233 17 -98 34 -200 36 -227 3 -26 12 -85 21 -131 8 -46 16 -89 16 -96 1 -7 5 -10 9 -8 3 3 13 -44 21 -103 11 -88 12 -108 1 -115 -7 -4 -17 -6 -22 -2 -5 3 -12 1 -16 -5 -4 -6 -10 -8 -15 -5 -4 2 -33 -4 -65 -15 -32 -11 -61 -17 -66 -14 -5 3 -9 0 -9 -6 0 -6 -4 -9 -9 -6 -5 3 -25 -1 -44 -9 -19 -8 -37 -11 -41 -8 -3 4 -6 0 -6 -7 0 -7 -3 -11 -6 -7 -4 3 -24 -3 -45 -14 -21 -10 -50 -20 -64 -21 -14 -1 -25 -6 -25 -11 0 -4 -4 -5 -10 -2 -5 3 -10 1 -10 -6 0 -7 -3 -9 -7 -6 -3 4 -12 -1 -20 -11 -8 -9 -12 -12 -9 -5 5 8 0 8 -19 0 -14 -7 -25 -15 -25 -19 0 -5 -8 -8 -19 -8 -10 0 -24 -6 -30 -13 -6 -8 -29 -22 -51 -32 -22 -10 -40 -22 -40 -27 0 -5 -5 -6 -10 -3 -6 3 -10 1 -10 -5 0 -6 -5 -8 -10 -5 -6 3 -10 1 -10 -6 0 -7 -3 -9 -7 -6 -3 4 -17 -3 -30 -15 -13 -12 -23 -18 -23 -15 0 4 -8 -1 -19 -10 -21 -21 -61 -52 -116 -91 -37 -27 -265 -248 -265 -257 0 -5 -27 -39 -50 -64 -9 -9 -31 -39 -50 -66 -19 -27 -41 -56 -48 -63 -6 -7 -12 -17 -12 -22 0 -5 -6 -15 -13 -22 -6 -8 -19 -27 -28 -43 -50 -97 -69 -133 -81 -162 -7 -18 -16 -33 -21 -33 -4 0 -7 -6 -5 -12 1 -7 -5 -26 -14 -43 -8 -16 -13 -36 -10 -44 2 -8 1 -11 -4 -8 -5 3 -10 -7 -11 -21 -1 -15 -15 -70 -31 -122 l-30 -95 -246 -3 -247 -2 -15 -33 c-8 -17 -28 -52 -44 -77 -15 -25 -29 -52 -29 -62 -1 -9 -5 -18 -10 -20 -6 -2 -99 -183 -106 -208 -1 -3 -9 -22 -19 -42 -9 -21 -17 -41 -17 -45 0 -5 -9 -22 -20 -40 -15 -23 -16 -32 -7 -36 10 -4 10 -6 1 -6 -7 -1 -13 -13 -13 -27 0 -14 -4 -23 -9 -20 -5 4 -7 -4 -3 -16 3 -14 1 -19 -6 -14 -6 3 -14 1 -18 -5 -4 -8 -3 -9 4 -5 16 10 16 11 -23 -106 -55 -159 -139 -488 -160 -618 -3 -25 -9 -58 -12 -75 -3 -16 -7 -40 -8 -52 -2 -11 -6 -30 -10 -42 -13 -43 7 -43 51 0 l43 42 -4 -34 c-27 -219 -30 -284 -30 -619 1 -392 10 -497 70 -795 147 -735 489 -1415 990 -1969 184 -203 471 -460 663 -593 26 -18 67 -47 92 -65 62 -43 280 -178 288 -178 4 0 17 -8 30 -18 l23 -18 -26 -24 c-14 -13 -25 -27 -25 -31 0 -11 371 -192 475 -232 170 -66 412 -143 565 -182 65 -16 88 -33 67 -48 -8 -6 -7 -7 4 -4 9 3 22 0 29 -6 10 -9 11 -9 5 3 -6 12 -5 12 5 3 7 -6 19 -9 28 -6 10 4 13 2 8 -5 -4 -8 -2 -10 8 -6 18 7 54 -28 126 -121 29 -38 78 -93 107 -122 52 -50 58 -53 141 -68 92 -16 153 -25 347 -51 143 -20 626 -30 760 -16 50 5 92 5 93 0 6 -14 71 -9 151 11 133 33 214 51 271 61 272 45 612 152 895 279 49 23 54 23 302 16 l252 -8 3 143 3 142 48 26 49 25 103 -103 104 -104 180 181 c100 99 181 183 181 187 0 3 -34 40 -75 81 -41 41 -75 78 -75 83 0 10 17 30 51 60 l27 24 63 -21 c162 -52 319 -78 319 -53 0 5 14 24 31 43 17 19 49 59 72 89 23 30 45 57 50 58 4 2 7 10 7 17 0 7 3 15 8 17 4 1 23 28 42 58 19 30 37 57 41 60 3 3 14 19 23 35 9 17 26 46 38 65 11 19 37 64 56 100 19 36 39 69 43 74 5 6 9 17 9 25 0 9 18 36 40 61 47 54 32 35 155 194 55 70 105 136 110 144 6 9 15 21 21 27 6 5 26 33 45 60 18 28 36 51 41 53 4 2 8 10 8 17 0 8 6 18 13 22 7 4 29 30 48 58 18 27 38 54 42 60 24 30 148 208 172 247 5 9 25 37 42 63 18 25 33 50 33 56 0 5 4 9 8 9 5 0 16 15 26 32 27 52 41 75 56 93 8 9 19 25 25 35 5 10 25 45 44 77 73 123 181 333 181 351 0 5 9 29 19 53 33 75 47 190 32 251 -29 113 -100 215 -253 362 -121 116 -148 150 -148 186 0 38 51 109 122 171 35 29 68 58 74 64 6 5 30 26 53 45 24 19 48 40 54 45 7 6 35 28 62 50 51 41 62 49 92 75 9 8 56 46 103 83 47 38 89 75 93 83 4 8 12 14 17 14 24 0 295 263 365 355 78 102 115 182 115 251 0 114 -86 252 -246 394 -33 29 -71 63 -86 76 -14 13 -31 24 -36 24 -6 0 -12 4 -14 8 -5 14 -156 112 -173 112 -8 0 -15 5 -15 10 0 6 -6 10 -14 10 -23 0 -29 96 -12 179 21 102 55 165 131 246 36 39 72 86 82 105 9 19 20 37 24 40 25 17 28 210 3 228 -5 4 -10 14 -12 22 -2 8 -8 17 -13 18 -5 2 -9 9 -9 15 0 6 -8 19 -17 30 -13 15 -14 18 -3 12 8 -5 2 4 -13 18 -16 15 -25 32 -21 39 4 7 3 8 -4 4 -11 -6 -16 6 -13 27 0 4 -5 6 -11 5 -7 -2 -12 3 -10 10 1 6 -4 11 -10 10 -7 -2 -12 5 -12 15 1 10 -1 16 -4 13 -3 -3 -13 1 -23 10 -17 16 -17 18 11 53 40 49 53 121 40 214 -30 214 -117 339 -252 362 -21 3 -50 17 -65 29 -25 22 -28 31 -31 105 -2 45 1 95 7 113 11 32 10 31 -42 -21 l-55 -53 8 38 c18 94 46 187 105 349 88 241 116 358 117 492 0 100 -3 117 -26 170 -36 78 -83 124 -191 188 -291 171 -475 237 -709 255 -203 15 -384 0 -518 -44 -406 -134 -1438 -653 -1993 -1005 -334 -211 -552 -455 -739 -830 -162 -321 -284 -751 -322 -1133 l-6 -66 -77 -21 c-345 -93 -626 -253 -699 -398 -52 -101 -167 -510 -213 -758 -19 -101 -23 -155 -24 -340 0 -204 2 -226 23 -295 49 -153 108 -233 221 -300 141 -82 253 -91 372 -33 102 50 223 183 269 293 13 31 14 27 81 -172 37 -112 79 -234 94 -273 15 -38 31 -84 36 -102 5 -18 21 -58 35 -89 l25 -57 -28 -29 c-35 -37 -36 -35 -98 123 -28 70 -53 119 -61 119 -30 0 -124 -30 -175 -55 -166 -84 -280 -211 -351 -389 -31 -78 -32 -86 -32 -231 -1 -123 2 -159 18 -198 l18 -49 -28 -29 c-15 -16 -31 -29 -34 -29 -4 0 -17 35 -31 77 -21 68 -24 97 -24 233 0 135 3 164 23 225 47 145 153 296 266 382 72 55 203 118 275 134 46 9 62 25 45 41 -7 8 -114 -23 -178 -51 -188 -82 -354 -262 -430 -466 -57 -149 -60 -370 -8 -527 l29 -87 -28 -27 -27 -26 -18 33 c-10 19 -29 66 -42 104 -23 64 -25 87 -26 255 -1 176 0 189 26 268 15 45 37 101 49 125 64 126 171 254 272 326 26 19 47 37 47 41 0 4 -23 1 -52 -6 -66 -18 -108 -17 -185 1 -118 28 -224 90 -305 178 -45 50 -48 51 -65 34 -17 -16 -14 -21 61 -96 l79 -80 -40 -53 c-22 -29 -48 -65 -57 -80 -9 -16 -23 -39 -31 -52 l-14 -24 -91 39 c-78 34 -120 46 -120 36 0 -2 -18 -47 -40 -101 -22 -54 -40 -99 -40 -100 0 -2 45 -22 101 -46 89 -38 100 -45 95 -64 -3 -12 -13 -61 -22 -111 -9 -49 -18 -96 -20 -102 -2 -10 -34 -13 -114 -13 l-111 0 3 -117 3 -118 109 -5 110 -5 17 -96 c9 -53 20 -105 23 -117 7 -22 -17 -36 -141 -84 -29 -10 -53 -23 -53 -28 0 -5 18 -52 40 -106 22 -54 40 -99 40 -101 0 -8 31 -1 57 11 45 23 130 56 145 56 8 0 22 -14 32 -31 18 -31 18 -31 -10 -60 -23 -24 -29 -26 -38 -14 -9 12 -15 12 -41 1 -122 -55 -179 -76 -185 -69 -8 9 -133 304 -144 340 -8 25 -14 21 129 82 75 32 73 29 60 109 l-6 32 -113 0 c-109 0 -114 1 -120 23 -3 12 -6 104 -6 205 l0 182 120 0 c66 0 120 3 120 8 1 4 5 26 9 50 10 50 15 45 -104 94 -49 20 -91 43 -93 50 -1 7 13 50 32 96 20 48 30 82 23 82 -7 0 -59 47 -117 105 l-105 104 -72 -26 -73 -26 0 -158 0 -159 -245 0 -245 0 -2 165 -3 166 -58 26 -58 26 -117 -116 -117 -117 -173 173 -172 172 110 110 111 111 -32 72 -32 72 -153 0 -154 0 0 94 0 94 -292 4 c-161 3 -296 3 -300 1 -5 -2 -8 -588 -8 -1301 l0 -1297 338 -341 c185 -187 374 -380 419 -427 l82 -87 268 0 268 0 -45 -42 -45 -43 -242 3 -243 3 -187 191 c-104 105 -304 307 -446 448 l-257 256 0 1332 1 1333 -33 27 -32 27 35 6 c18 3 188 4 376 1 l342 -5 3 104 3 104 139 5 138 5 29 80 28 80 -94 95 -95 95 32 33 33 32 -463 0 c-254 0 -462 3 -462 6 0 13 477 978 520 1052 l30 52 -97 0 -97 0 44 45 44 45 84 0 84 0 101 101 c191 191 420 313 687 367 l95 19 8 109 c4 60 6 189 4 286 l-4 177 37 36 37 36 7 -80 c4 -44 6 -187 5 -318 l-2 -238 22 0 c18 0 26 11 45 67 58 175 196 291 378 319 229 35 462 -119 518 -343 l12 -48 218 0 218 0 147 61 c80 34 147 60 149 58 2 -2 15 -30 29 -62 26 -57 27 -58 64 -55 l38 3 3 73 3 72 169 0 170 0 0 -70 c0 -78 3 -80 64 -55 23 10 40 25 46 43 6 15 15 34 20 42 6 8 17 31 26 50 8 19 45 97 81 172 37 76 64 139 62 141 -2 2 -137 79 -299 172 -539 307 -1304 747 -1347 775 l-42 27 29 28 29 28 57 -33 c31 -17 82 -46 113 -62 70 -38 504 -283 1267 -717 128 -72 236 -131 242 -131 5 0 26 26 47 58 115 173 268 345 410 459 138 111 405 274 820 501 l220 121 3 188 c3 222 -9 300 -65 406 -74 140 -199 246 -345 292 -76 24 -90 25 -337 25 -142 0 -495 3 -786 7 l-528 6 51 49 51 49 6 382 c3 210 7 678 10 1040 l6 657 -226 0 -225 0 0 -871 c0 -577 3 -868 10 -864 7 4 10 -57 10 -174 l0 -181 -150 0 -150 0 0 1045 0 1045 -225 0 -225 0 0 -1045z m1816 -1410 c57 -25 116 -81 147 -140 17 -32 21 -58 22 -130 0 -79 -3 -96 -27 -141 -30 -57 -77 -103 -141 -136 -61 -33 -193 -33 -258 0 -62 31 -116 86 -145 147 -28 59 -33 181 -10 236 70 166 249 237 412 164z m731 4 c54 -26 116 -87 145 -141 18 -35 22 -60 23 -133 0 -79 -3 -96 -27 -141 -117 -223 -437 -216 -548 11 -34 69 -34 178 -2 250 40 87 117 152 209 175 53 13 150 3 200 -21z m-1457 -4 c48 -25 119 -94 143 -140 17 -32 21 -58 22 -130 0 -79 -3 -96 -27 -141 -30 -57 -77 -103 -141 -136 -61 -33 -193 -33 -257 1 -61 32 -107 76 -138 136 -23 43 -26 62 -26 140 0 78 3 96 23 130 47 78 120 139 186 156 48 13 178 3 215 -16z m-584 -335 c-15 -60 -54 -128 -92 -162 -39 -34 -117 -68 -157 -68 l-40 0 23 25 c13 14 27 25 32 25 5 0 29 9 53 20 49 22 106 87 124 140 11 33 60 94 69 86 2 -2 -3 -32 -12 -66z m-2676 -5575 l0 -925 -30 0 -30 0 0 925 0 925 30 0 30 0 0 -925z m1145 -354 c90 -32 133 -65 161 -124 29 -64 30 -104 3 -167 -34 -78 -99 -120 -228 -144 -198 -38 -418 0 -498 86 -53 56 -67 151 -34 224 33 72 115 122 238 144 84 16 291 4 358 -19z m165 -811 l0 -210 -35 0 -35 0 0 80 0 80 -345 0 -345 0 0 40 c0 21 7 54 15 72 8 18 19 52 25 76 10 39 14 43 38 40 26 -3 27 -5 30 -70 l3 -68 289 0 290 0 0 85 0 85 35 0 35 0 0 -210z m-1070 0 c64 -33 94 -81 98 -161 4 -57 1 -74 -17 -103 -32 -52 -74 -82 -129 -96 -142 -34 -265 97 -228 240 15 57 44 93 96 121 48 25 130 25 180 -1z m591 -696 c66 -45 98 -152 70 -227 -19 -49 -69 -94 -125 -111 -51 -16 -60 -16 -108 -2 -110 32 -169 153 -124 259 18 44 70 95 109 107 53 16 134 5 178 -26z m489 -269 c-22 -24 -29 -25 -142 -25 l-118 0 0 25 0 25 142 0 141 0 -23 -25z"/>
<path d="M5331 9510 c-51 -12 -112 -60 -145 -114 -27 -42 -30 -58 -30 -120 0 -76 12 -108 61 -166 62 -74 192 -102 280 -59 53 26 119 99 133 148 27 96 6 176 -63 246 -69 68 -140 88 -236 65z m144 -101 c99 -48 101 -209 3 -269 -44 -27 -120 -27 -164 0 -47 30 -78 98 -69 155 16 108 128 163 230 114z"/>
<path d="M5329 9341 c-38 -39 -39 -87 -3 -130 21 -26 33 -31 68 -31 52 0 81 20 96 65 31 95 -89 167 -161 96z"/>
<path d="M6052 9506 c-59 -19 -105 -57 -138 -113 -24 -40 -28 -59 -28 -118 0 -104 47 -179 139 -221 149 -70 322 28 342 194 20 169 -153 311 -315 258z m148 -94 c104 -52 109 -210 8 -272 -47 -28 -125 -27 -168 3 -98 67 -90 216 15 270 40 21 102 21 145 -1z"/>
<path d="M6059 9341 c-21 -22 -29 -39 -29 -66 0 -83 105 -127 164 -69 58 59 14 164 -69 164 -27 0 -44 -8 -66 -29z"/>
<path d="M4592 9511 c-41 -11 -99 -56 -130 -101 -67 -99 -48 -239 44 -320 52 -45 93 -60 164 -60 142 0 240 101 240 248 0 59 -4 75 -32 122 -45 74 -105 111 -190 116 -35 2 -78 -1 -96 -5z m148 -103 c108 -55 108 -216 0 -270 -66 -33 -137 -20 -190 36 -19 21 -25 40 -28 89 -4 77 19 119 81 147 55 25 83 25 137 -2z"/>
<path d="M4614 9358 c-57 -27 -58 -132 -2 -167 36 -22 98 -16 127 14 38 38 37 107 -2 141 -30 26 -84 31 -123 12z"/>
<path d="M2308 3205 c-111 -22 -157 -62 -158 -136 0 -38 5 -50 33 -76 48 -46 115 -64 252 -70 102 -5 134 -2 205 16 90 23 124 45 146 98 23 52 -7 108 -76 143 -75 38 -273 51 -402 25z"/>
<path d="M1631 2419 c-54 -28 -87 -90 -76 -147 13 -70 100 -125 169 -108 40 10 85 55 96 96 32 119 -80 213 -189 159z m89 -19 c19 0 69 -53 75 -80 10 -44 -21 -99 -64 -117 -45 -19 -104 -4 -127 33 -23 34 -21 99 2 126 23 25 74 49 92 43 8 -3 17 -5 22 -5z"/>
<path d="M1656 2328 c-21 -29 -20 -41 2 -61 24 -22 45 -21 65 1 22 24 21 45 -1 65 -25 23 -48 21 -66 -5z"/>
<path d="M5171 11478 c1 -288 4 -512 8 -498 8 27 21 -339 21 -579 l0 -145 40 39 40 39 2 -215 3 -214 110 0 110 0 3 330 2 330 42 42 42 43 4 383 c2 210 8 386 13 392 5 5 9 136 9 292 l0 283 -225 0 -225 0 1 -522z"/>
<path d="M5913 11818 c4 -101 10 -328 14 -506 l6 -323 44 43 43 42 0 -582 0 -582 110 0 110 0 0 693 0 693 45 44 45 44 0 308 0 308 -212 0 -211 0 6 -182z"/>
<path d="M5924 10590 c0 -129 2 -182 3 -117 2 64 2 170 0 235 -1 64 -3 11 -3 -118z"/>
<path d="M5592 10083 c-1 -94 1 -174 6 -176 4 -3 6 47 4 111 -4 216 -8 238 -10 65z"/>
<path d="M5190 10068 c-3 -92 -2 -164 3 -159 4 4 6 79 5 167 l-3 159 -5 -167z"/>
<path d="M3197 7491 c-148 -49 -251 -174 -264 -320 l-6 -58 -141 -6 c-300 -13 -546 -117 -784 -332 -97 -88 -196 -234 -297 -440 -197 -403 -355 -727 -355 -731 0 -2 197 -4 437 -4 l438 0 95 95 95 95 84 -84 83 -84 83 39 c46 22 88 39 94 39 7 0 11 42 13 118 l3 117 243 3 242 2 0 -109 c0 -105 1 -110 23 -116 12 -4 60 -23 105 -42 l84 -36 78 78 c71 71 79 76 90 59 10 -17 11 -17 6 4 -3 12 -9 30 -12 40 -5 16 8 25 76 52 78 33 81 35 78 65 l-3 30 -92 3 -93 3 0 169 0 169 93 3 92 3 3 31 c3 30 1 32 -78 64 -72 29 -80 35 -74 54 8 26 78 196 104 253 l19 42 36 -15 c20 -8 58 -23 85 -34 l48 -19 17 26 c17 25 17 26 -44 87 -34 34 -61 66 -61 71 0 5 51 60 112 122 l113 113 -186 0 -186 0 -11 66 c-6 37 -23 92 -38 122 -80 163 -278 249 -447 193z m235 -101 c75 -28 122 -71 158 -143 42 -87 47 -139 21 -226 -44 -146 -191 -237 -336 -210 -74 14 -130 45 -180 101 -72 80 -92 181 -59 296 21 71 105 160 174 185 64 22 158 21 222 -3z m-682 -459 c0 -28 -1 -28 -69 -35 -233 -21 -440 -122 -602 -292 -54 -58 -79 -94 -209 -299 -35 -55 -87 -136 -115 -180 -28 -44 -78 -121 -110 -172 -50 -78 -61 -91 -76 -82 -10 5 -20 13 -23 17 -3 4 19 44 47 88 29 45 81 127 117 183 254 399 269 420 355 507 170 173 351 255 630 288 17 1 36 4 43 5 7 0 12 -11 12 -28z"/>
<path d="M3245 7342 c-98 -32 -165 -127 -165 -232 0 -163 152 -280 306 -235 108 31 178 123 178 235 0 110 -69 203 -175 234 -64 19 -80 19 -144 -2z m141 -91 c60 -27 89 -73 89 -141 0 -66 -27 -110 -85 -140 -50 -25 -83 -25 -136 0 -120 59 -114 230 11 286 41 18 73 17 121 -5z"/>
<path d="M3258 7181 c-27 -24 -33 -36 -33 -71 0 -35 6 -47 33 -71 37 -33 71 -37 112 -12 59 34 66 99 16 149 -44 44 -83 45 -128 5z"/>
<path d="M4730 7165 l0 -85 -27 0 c-16 0 -63 -9 -106 -19 l-78 -19 -9 22 c-4 11 -19 47 -33 78 l-26 57 -63 -25 c-35 -14 -66 -29 -70 -32 -4 -4 7 -38 23 -76 16 -38 28 -73 27 -77 -2 -5 -42 -35 -90 -67 l-87 -60 -57 60 -57 60 -56 -56 -56 -56 58 -58 59 -59 -59 -90 -59 -89 -77 32 -78 33 -23 -53 c-42 -94 -42 -91 11 -111 27 -10 62 -24 79 -31 l32 -13 -19 -73 c-10 -39 -19 -87 -19 -105 l0 -33 -90 0 -90 0 0 -80 0 -80 90 0 90 0 0 -33 c0 -18 8 -65 19 -105 l18 -71 -78 -32 c-88 -36 -86 -29 -43 -124 l23 -54 79 34 78 33 23 -40 c12 -22 25 -38 27 -35 7 7 105 300 106 317 0 8 -5 49 -12 90 -47 284 113 595 375 728 106 54 205 76 330 74 61 0 121 -2 134 -4 22 -3 26 4 52 102 15 58 28 108 28 111 1 8 -80 29 -113 29 -26 0 -26 0 -26 85 l0 85 -80 0 -80 0 0 -85z"/>
<path d="M4145 7050 c33 -33 62 -60 65 -60 3 0 15 8 27 18 l22 17 -19 43 -19 42 -68 0 -67 0 59 -60z"/>
<path d="M4683 6645 c-126 -35 -239 -116 -309 -222 -46 -69 -86 -191 -82 -249 l3 -43 55 36 c96 62 250 131 400 180 80 25 146 47 147 47 6 3 34 248 29 253 -14 14 -191 13 -243 -2z"/>
<path d="M2870 5740 c0 -87 -2 -101 -17 -106 -72 -22 -161 -61 -214 -94 l-64 -39 -75 75 c-42 41 -80 74 -85 74 -5 0 -56 -46 -112 -102 l-103 -103 87 -87 86 -87 -31 -68 c-17 -37 -39 -101 -49 -140 l-17 -73 -133 0 -133 0 0 -150 0 -150 144 0 143 0 23 -62 c12 -35 38 -90 57 -122 l34 -59 -105 -106 -106 -106 103 -103 c56 -56 106 -102 110 -102 4 0 54 47 110 105 l103 106 66 -35 c37 -19 92 -42 122 -52 l56 -18 0 -153 0 -153 150 0 150 0 0 150 0 150 28 6 c53 12 98 27 162 56 l64 29 96 -96 c52 -52 98 -95 102 -95 9 0 208 198 208 208 0 4 -40 47 -89 96 l-89 88 44 71 c24 38 53 99 65 134 l21 63 48 0 49 0 3 150 3 149 -39 3 -40 3 -26 90 c-14 50 -41 119 -59 154 l-33 63 72 71 72 70 -106 106 -106 106 -68 -68 -69 -68 -65 35 c-70 39 -195 86 -228 86 -19 0 -20 6 -20 100 l0 100 -150 0 -150 0 0 -100z m294 -345 c95 -25 166 -66 238 -136 211 -206 210 -529 -1 -740 -149 -148 -370 -190 -567 -108 -144 60 -263 200 -299 350 -44 187 5 362 139 494 135 133 317 185 490 140z"/>
<path d="M2950 5306 c-220 -49 -370 -266 -333 -483 61 -354 495 -486 736 -223 121 132 148 309 72 469 -61 126 -176 215 -314 241 -66 12 -91 12 -161 -4z m188 -50 c286 -76 376 -440 160 -642 -203 -189 -531 -107 -619 155 -17 50 -20 80 -17 140 14 242 242 409 476 347z"/>
<path d="M2952 5162 c-69 -25 -120 -66 -158 -131 -109 -179 13 -409 227 -428 85 -8 150 18 219 87 90 91 111 200 61 316 -58 131 -218 202 -349 156z"/>
<path d="M3841 5316 l-34 -35 25 -63 c14 -35 29 -78 33 -95 9 -45 33 -42 40 5 3 20 12 68 19 105 12 65 12 69 -10 92 -13 14 -27 25 -32 25 -4 0 -23 -15 -41 -34z"/>
<path d="M32 4870 c0 -19 2 -27 5 -17 2 9 2 25 0 35 -3 9 -5 1 -5 -18z"/>
<path d="M24 4570 c0 -91 2 -128 3 -82 2 45 2 119 0 165 -1 45 -3 8 -3 -83z"/>
<path d="M3813 4523 c-20 -43 -37 -81 -37 -85 -1 -7 84 -101 102 -112 6 -3 24 8 40 25 28 30 29 34 17 63 -7 17 -21 66 -31 109 -14 61 -21 77 -36 77 -12 0 -29 -24 -55 -77z"/>
</g>
<g id="layer106" fill="#4fb2ec" stroke="none">
<path d="M8375 9406 c-5 -3 -53 -7 -105 -9 -52 -3 -104 -8 -115 -11 -88 -23 -172 -50 -179 -57 -6 -5 -17 -9 -25 -9 -9 -1 -34 -9 -56 -20 -22 -11 -43 -19 -47 -20 -4 0 -33 -12 -65 -26 -32 -14 -71 -32 -88 -39 -167 -73 -716 -344 -950 -470 -420 -226 -692 -388 -853 -508 -169 -126 -332 -307 -466 -517 -57 -89 -169 -318 -219 -446 -93 -238 -183 -602 -203 -823 -9 -99 -18 -134 -34 -137 -81 -17 -220 -60 -287 -90 -17 -8 -34 -14 -38 -14 -18 0 -189 -87 -250 -128 -89 -59 -128 -95 -165 -150 -25 -38 -82 -195 -121 -332 -7 -25 -13 -47 -14 -50 -1 -3 -5 -18 -9 -35 -4 -16 -12 -41 -17 -55 -5 -14 -11 -41 -14 -60 -3 -19 -11 -53 -17 -75 -5 -22 -12 -49 -14 -60 -2 -11 -6 -31 -9 -45 -3 -14 -8 -41 -11 -60 -4 -19 -8 -44 -11 -55 -13 -65 -18 -162 -18 -330 0 -171 2 -197 23 -265 49 -153 108 -233 221 -300 141 -82 253 -91 372 -33 102 50 223 183 269 293 13 31 14 27 81 -172 37 -112 79 -234 94 -273 15 -38 31 -84 36 -102 5 -18 21 -58 35 -89 l25 -57 -28 -29 c-35 -37 -36 -35 -98 123 -28 70 -53 119 -61 119 -30 0 -124 -30 -175 -55 -166 -84 -280 -211 -351 -389 -31 -78 -32 -86 -32 -231 -1 -123 2 -159 18 -198 l18 -49 -28 -29 c-15 -16 -31 -29 -34 -29 -4 0 -17 35 -31 77 -21 68 -24 97 -24 233 0 135 3 164 23 225 47 145 153 296 266 382 72 55 203 118 275 134 46 9 62 25 45 41 -7 8 -114 -23 -178 -51 -188 -82 -354 -262 -430 -466 -57 -149 -60 -370 -8 -527 l29 -87 -28 -27 -27 -26 -18 33 c-10 19 -29 66 -42 104 -23 64 -25 87 -26 255 -1 176 0 189 26 268 15 45 37 101 49 125 64 126 171 254 272 326 26 19 47 37 47 41 0 4 -23 1 -52 -6 -66 -18 -108 -17 -185 1 -118 28 -224 90 -305 178 -45 50 -48 51 -65 34 -17 -16 -14 -21 61 -96 l79 -80 -40 -53 c-22 -29 -47 -64 -55 -78 -8 -14 -22 -37 -31 -52 l-16 -26 -91 39 c-78 34 -120 46 -120 36 0 -2 -18 -47 -40 -101 -22 -54 -40 -99 -40 -100 0 -2 45 -22 101 -46 89 -38 100 -45 95 -64 -3 -12 -13 -61 -22 -111 -9 -49 -18 -96 -20 -102 -2 -10 -34 -13 -114 -13 l-111 0 3 -117 3 -118 109 -5 110 -5 17 -96 c9 -53 20 -105 23 -117 7 -22 -17 -36 -141 -84 -29 -10 -53 -23 -53 -28 0 -5 18 -52 40 -106 22 -54 40 -99 40 -101 0 -8 31 -1 57 11 45 23 130 56 145 56 8 0 22 -14 32 -31 18 -31 18 -31 -10 -60 -23 -24 -29 -26 -38 -14 -9 12 -15 12 -41 1 -122 -55 -179 -76 -185 -69 -8 9 -133 304 -144 340 -8 25 -14 21 129 82 75 32 73 29 60 108 l-6 33 -113 0 c-109 0 -114 1 -120 23 -3 12 -6 104 -6 205 l0 182 120 0 c66 0 120 3 120 8 1 4 5 26 9 50 10 50 15 45 -104 94 -49 20 -91 43 -93 50 -1 7 13 50 32 96 20 48 30 82 23 82 -7 0 -59 47 -117 105 l-106 106 -39 -18 c-22 -9 -42 -17 -45 -18 -3 0 -17 -4 -33 -8 l-27 -7 0 -160 0 -160 -245 0 -245 0 0 163 0 163 -61 29 -60 28 -117 -116 -117 -117 -175 175 -174 174 111 112 111 112 -29 61 -29 61 -152 5 -153 5 -3 98 -3 97 -293 0 -293 0 -6 -662 c-4 -364 -7 -945 -7 -1292 0 -590 1 -633 18 -656 10 -14 162 -169 337 -346 176 -176 357 -360 402 -407 l82 -87 268 0 268 0 -45 -43 -45 -42 -242 3 -243 3 -187 192 c-208 211 -492 495 -508 505 -5 4 -52 51 -103 104 l-92 97 0 1328 0 1328 -42 38 -43 38 388 -7 387 -6 0 106 0 106 139 0 138 0 27 74 c14 41 26 78 26 82 0 5 -41 50 -92 101 l-92 93 34 35 34 35 -466 0 -467 0 63 133 c139 290 434 884 459 924 15 24 27 45 27 48 0 3 -245 5 -544 5 l-545 0 -99 -198 c-253 -505 -393 -1013 -432 -1567 -59 -837 148 -1704 574 -2405 32 -52 67 -111 78 -130 11 -19 37 -57 57 -85 20 -27 52 -72 71 -100 18 -27 41 -57 49 -66 9 -9 23 -26 31 -39 54 -80 190 -233 364 -405 161 -160 355 -326 494 -423 26 -17 67 -46 92 -64 62 -43 280 -178 288 -178 4 0 17 -8 30 -18 l23 -18 -26 -24 c-14 -13 -25 -27 -25 -31 0 -11 371 -192 475 -232 170 -66 412 -143 565 -182 65 -16 88 -33 67 -48 -8 -6 -7 -7 4 -4 9 3 22 0 29 -6 10 -9 11 -9 5 3 -6 12 -5 12 5 3 7 -6 19 -9 28 -6 10 4 13 2 8 -5 -4 -8 -2 -10 8 -6 18 7 54 -28 126 -121 29 -38 78 -93 107 -122 52 -50 58 -53 141 -68 92 -16 153 -25 347 -51 143 -20 626 -30 760 -16 50 5 92 5 93 0 6 -14 71 -9 151 11 133 33 214 51 271 61 272 45 612 152 895 279 49 23 54 23 302 16 l252 -8 3 143 3 142 48 26 49 25 103 -103 104 -104 180 181 c100 99 181 183 181 187 0 3 -34 40 -75 81 -41 41 -75 78 -75 83 0 10 17 30 51 60 l27 24 63 -21 c162 -52 319 -78 319 -53 0 5 14 24 31 43 17 19 49 59 72 89 23 30 45 57 50 58 4 2 7 10 7 17 0 7 3 15 8 17 4 1 23 28 42 58 19 30 37 57 41 60 3 3 14 19 23 35 9 17 26 46 38 65 11 19 37 64 56 100 19 36 39 69 43 74 5 6 9 17 9 25 0 9 18 36 40 61 47 54 32 35 155 194 55 70 105 136 110 144 6 9 15 21 21 27 6 5 26 33 45 60 18 28 36 52 41 53 4 2 8 10 8 17 0 8 6 18 13 22 7 4 29 30 48 58 18 27 38 54 42 60 24 30 148 208 172 247 5 9 25 37 43 63 17 25 32 50 32 56 0 5 4 9 8 9 5 0 16 15 26 33 27 51 41 74 56 92 8 9 19 25 25 35 5 10 25 45 44 77 73 123 181 333 181 351 0 5 9 29 19 53 33 75 47 190 32 251 -29 113 -100 215 -253 362 -121 116 -148 150 -148 186 0 38 51 109 122 171 35 29 68 58 74 64 6 5 30 26 53 45 24 19 48 40 54 45 7 6 35 28 62 50 51 41 62 49 92 75 9 8 56 46 103 83 47 38 89 75 93 83 4 8 12 14 17 14 24 0 295 263 365 355 78 102 115 182 115 251 0 114 -86 252 -246 394 -33 29 -71 63 -86 76 -14 13 -31 24 -36 24 -6 0 -12 4 -14 8 -5 14 -156 112 -173 112 -8 0 -15 5 -15 10 0 6 -6 10 -14 10 -23 0 -29 96 -12 179 21 102 55 165 131 246 36 39 72 86 82 105 9 19 20 37 24 40 25 17 28 210 3 228 -5 4 -10 14 -12 22 -2 8 -8 17 -13 18 -5 2 -9 9 -9 15 0 6 -8 19 -17 30 -13 15 -14 18 -3 12 8 -5 2 4 -13 18 -16 15 -25 32 -21 39 4 7 3 8 -4 4 -11 -6 -16 6 -13 27 0 4 -5 6 -11 5 -7 -2 -12 3 -10 10 1 6 -4 11 -10 10 -7 -2 -12 5 -11 15 0 10 -2 16 -5 13 -3 -3 -13 1 -23 10 -17 16 -17 18 11 53 40 49 53 121 40 214 -30 214 -117 339 -252 362 -21 3 -50 17 -65 29 -25 22 -28 31 -31 105 -2 45 1 95 7 113 11 32 10 31 -42 -21 l-55 -53 8 38 c18 94 46 187 105 349 88 241 116 358 117 492 0 100 -3 117 -26 170 -36 78 -83 124 -191 188 -253 149 -469 234 -635 249 -97 9 -255 16 -265 12z m-6825 -5771 l0 -925 -35 0 -35 0 0 925 0 925 35 0 35 0 0 -925z m1134 -353 c92 -34 134 -66 162 -125 29 -64 30 -104 3 -167 -34 -78 -99 -120 -228 -144 -190 -36 -390 -5 -493 77 -28 22 -58 98 -58 147 0 62 38 141 81 166 45 27 117 55 154 61 17 3 32 7 34 9 2 2 67 2 145 0 114 -2 152 -7 200 -24z m166 -812 l0 -210 -35 0 -35 0 0 80 0 80 -345 0 -345 0 0 40 c0 21 7 54 15 72 8 18 19 52 25 76 10 39 14 43 38 40 26 -3 27 -5 30 -70 l3 -68 289 0 290 0 0 85 0 85 35 0 35 0 0 -210z m-1070 0 c21 -11 51 -36 67 -56 23 -31 28 -49 31 -108 4 -69 2 -74 -30 -116 -59 -79 -158 -106 -243 -67 -138 64 -144 278 -10 345 53 28 134 28 185 2z m591 -696 c66 -45 98 -152 70 -227 -19 -49 -69 -94 -125 -111 -51 -16 -60 -16 -108 -2 -110 32 -169 153 -124 259 18 44 70 95 109 107 53 16 134 5 178 -26z m489 -269 c-22 -24 -29 -25 -142 -25 l-118 0 0 25 0 25 142 0 141 0 -23 -25z"/>
<path d="M2340 3210 c-19 -4 -50 -10 -68 -14 -76 -15 -121 -62 -122 -127 0 -91 88 -136 286 -145 103 -5 133 -3 204 15 90 23 124 45 146 98 23 52 -7 108 -76 143 -67 34 -274 51 -370 30z"/>
<path d="M1631 2419 c-54 -28 -87 -90 -76 -147 13 -69 101 -125 169 -108 66 16 114 96 100 166 -7 33 -61 96 -85 98 -8 1 -25 4 -39 7 -16 4 -41 -2 -69 -16z m124 -42 c42 -33 52 -74 30 -121 -22 -45 -52 -64 -97 -61 -50 3 -85 28 -97 70 -16 60 6 106 64 131 39 17 60 13 100 -19z"/>
<path d="M1660 2335 c-18 -22 -19 -48 -2 -67 20 -23 45 -23 65 0 22 24 21 45 -1 65 -23 21 -46 22 -62 2z"/>
<path d="M2173 1723 c-63 -60 -67 -137 -10 -199 58 -64 162 -57 211 14 43 63 31 143 -30 191 -20 16 -41 21 -84 21 -49 0 -62 -4 -87 -27z m150 -23 c33 -26 51 -79 38 -111 -19 -49 -48 -69 -101 -69 -42 0 -52 4 -74 31 -58 68 -15 169 72 169 24 0 49 -8 65 -20z"/>
<path d="M2225 1650 c-27 -29 -10 -74 28 -78 53 -6 77 46 39 81 -25 22 -45 21 -67 -3z"/>
<path d="M4686 6645 c-183 -47 -333 -197 -381 -382 -8 -31 -15 -74 -15 -95 l0 -38 53 34 c118 76 317 161 505 217 24 7 45 15 46 18 8 13 38 243 32 248 -13 13 -184 12 -240 -2z"/>
<path d="M2868 5739 l-3 -101 -77 -28 c-43 -15 -106 -44 -140 -65 -35 -21 -66 -40 -71 -42 -4 -3 -36 24 -71 59 -104 104 -83 105 -197 -8 -54 -54 -99 -103 -99 -109 0 -5 37 -47 82 -92 l81 -82 -30 -68 c-17 -37 -38 -100 -48 -140 l-17 -72 -132 -3 -131 -3 0 -145 0 -145 144 -5 144 -5 12 -42 c7 -23 31 -76 54 -119 l42 -78 -102 -102 c-57 -57 -101 -105 -98 -108 2 -2 49 -50 103 -106 l99 -101 107 106 106 106 95 -45 c52 -25 105 -47 119 -49 l25 -4 3 -156 3 -157 149 0 150 0 0 157 c0 86 2 154 5 151 4 -3 25 -1 48 4 40 9 64 18 156 59 l44 20 96 -95 c53 -53 99 -96 103 -96 9 0 208 199 208 208 0 5 -40 48 -90 95 l-89 86 44 72 c24 40 54 101 66 136 l21 63 48 0 48 0 0 139 c0 77 3 144 6 150 5 7 -6 11 -33 11 -37 0 -53 10 -57 35 -8 53 -40 147 -69 206 l-37 71 72 71 72 70 -106 106 -106 106 -70 -70 -70 -70 -28 18 c-50 33 -153 78 -218 95 l-64 17 0 97 0 98 -150 0 -149 0 -3 -101z m327 -353 c157 -50 274 -162 336 -321 31 -79 37 -215 15 -301 -41 -155 -149 -287 -281 -344 -98 -43 -136 -50 -250 -47 -106 3 -113 5 -198 46 -108 52 -186 126 -238 226 -43 82 -59 149 -59 248 0 142 46 254 147 359 67 69 166 127 248 147 79 18 199 13 280 -13z"/>
<path d="M2970 5309 c-178 -29 -324 -180 -352 -367 -20 -125 26 -258 121 -352 58 -57 126 -97 198 -116 64 -16 154 -17 201 0 23 8 43 15 45 14 1 0 25 9 52 22 54 25 152 118 180 172 34 65 49 128 49 208 1 76 -8 113 -43 184 -83 169 -267 265 -451 235z m227 -73 c76 -35 153 -112 191 -193 23 -49 27 -71 27 -143 -1 -47 -4 -96 -7 -110 -25 -104 -109 -200 -223 -256 -32 -15 -61 -19 -145 -19 -93 0 -112 3 -162 27 -73 34 -146 107 -183 182 -58 120 -42 292 38 393 87 108 187 155 322 150 62 -3 94 -10 142 -31z"/>
<path d="M2995 5170 c-62 -10 -110 -35 -155 -80 -58 -58 -83 -119 -83 -200 0 -158 117 -279 276 -285 85 -3 141 20 207 85 72 73 99 149 82 235 -22 110 -74 179 -166 220 -60 27 -106 34 -161 25z"/>
<path d="M3841 5316 l-34 -35 27 -63 c15 -35 29 -74 31 -87 5 -26 21 -48 29 -40 5 5 12 39 22 114 3 27 10 60 15 72 6 16 2 28 -16 47 -13 14 -28 26 -33 26 -4 0 -23 -15 -41 -34z"/>
<path d="M3826 4545 c-14 -31 -26 -59 -26 -64 0 -5 -7 -14 -15 -21 -8 -7 -15 -15 -15 -19 0 -7 109 -121 115 -121 2 0 17 14 34 32 21 22 27 36 21 47 -4 9 -16 43 -25 76 -22 83 -23 88 -24 108 -1 10 -9 17 -20 17 -13 0 -27 -17 -45 -55z"/>
<path d="M4778 4208 c-37 -39 -60 -68 -50 -65 9 4 45 14 79 24 34 10 65 21 68 25 7 7 -15 88 -24 87 -3 0 -36 -32 -73 -71z"/>
<path d="M3852 4127 c-29 -29 -52 -55 -52 -58 0 -4 28 -19 62 -34 69 -31 79 -29 112 27 l21 37 -42 40 c-23 23 -43 41 -45 41 -2 0 -27 -24 -56 -53z"/>
</g>
<g id="layer107" fill="#e369c5" stroke="none">
<path d="M3730 11448 l0 -552 45 44 45 44 0 -274 c0 -151 3 -393 7 -537 l6 -263 104 0 103 0 0 647 0 646 50 53 50 53 0 345 0 346 -205 0 -205 0 0 -552z"/>
<path d="M4460 11836 c0 -90 3 -172 6 -181 6 -14 13 -10 44 20 l37 36 6 -593 c4 -326 7 -731 7 -900 l0 -308 105 0 105 0 0 768 c0 422 3 872 7 1000 6 222 5 232 -12 232 -15 0 -9 10 25 45 l44 45 -187 0 -187 0 0 -164z"/>
<path d="M5290 10910 l0 -1000 105 0 105 0 2 720 c2 396 3 845 3 998 l0 277 -107 3 -108 3 0 -1001z"/>
<path d="M6020 10910 l0 -1000 105 0 105 0 0 994 0 993 -37 7 c-21 3 -68 6 -105 6 l-68 0 0 -1000z"/>
<path d="M3501 9794 c-138 -37 -281 -147 -354 -271 -61 -106 -77 -174 -77 -338 l0 -143 553 -315 c303 -173 714 -407 912 -519 198 -113 456 -260 573 -327 117 -66 216 -121 220 -121 5 0 31 35 59 78 165 247 345 421 623 599 114 73 516 303 693 397 l127 68 0 178 c0 116 -5 206 -15 257 -34 178 -153 334 -315 411 -47 22 -109 45 -138 51 -37 8 -473 11 -1430 10 -1168 0 -1385 -3 -1431 -15z m551 -241 c58 -26 118 -85 149 -149 19 -40 24 -64 24 -129 0 -130 -54 -218 -167 -275 -50 -24 -74 -30 -128 -30 -98 0 -155 23 -222 90 -43 43 -60 69 -72 110 -65 219 85 420 304 407 36 -2 86 -13 112 -24z m754 -6 c188 -95 226 -349 74 -496 -54 -53 -131 -81 -219 -81 -119 0 -217 65 -273 180 -31 65 -31 177 0 245 37 81 112 147 202 176 49 16 162 4 216 -24z m730 0 c64 -32 127 -103 148 -164 24 -71 21 -177 -8 -238 -30 -66 -111 -138 -178 -161 -239 -79 -471 147 -392 383 31 91 109 170 197 199 65 21 171 13 233 -19z m721 5 c109 -57 173 -157 173 -273 0 -96 -23 -154 -89 -220 -64 -64 -131 -92 -218 -91 -166 1 -303 140 -303 307 0 120 81 240 192 284 70 28 183 24 245 -7z"/>
<path d="M3859 9507 c-107 -30 -174 -122 -174 -237 0 -80 30 -138 93 -187 80 -61 183 -68 268 -18 53 31 87 74 108 138 19 57 20 89 2 140 -46 127 -174 198 -297 164z m141 -95 c50 -25 80 -74 80 -134 0 -59 -19 -99 -62 -131 -93 -70 -218 -23 -249 94 -11 43 -10 50 12 95 31 63 77 94 138 94 25 0 62 -8 81 -18z"/>
<path d="M2651 9078 c111 -608 170 -1248 155 -1685 -7 -179 -6 -183 13 -183 14 0 23 9 27 28 27 111 127 244 229 302 128 73 298 79 432 16 125 -60 222 -174 254 -300 l11 -46 229 0 c179 0 235 3 261 15 80 35 228 95 236 95 5 0 20 -25 32 -55 22 -53 24 -55 61 -55 l38 0 3 68 3 67 173 3 172 2 0 -70 c0 -38 3 -70 6 -70 4 0 25 5 47 12 31 9 43 20 54 47 8 20 20 43 27 51 7 8 32 60 55 115 24 55 59 129 78 164 28 52 32 66 21 76 -7 7 -130 79 -273 160 -143 81 -730 415 -1305 744 -574 328 -1047 597 -1051 599 -4 2 2 -43 12 -100z"/>
<path d="M2562 8094 c-468 -123 -860 -407 -1129 -816 -79 -120 -161 -290 -208 -429 -46 -140 -46 -139 14 -139 l48 0 23 63 c146 406 457 786 833 1019 120 75 285 152 422 197 l120 39 3 46 c4 55 5 55 -126 20z"/>
<path d="M2600 7901 c-297 -101 -543 -255 -762 -477 -140 -142 -236 -272 -329 -444 -45 -82 -109 -232 -109 -254 0 -14 22 -16 209 -16 l210 0 48 55 c103 118 272 243 428 316 106 50 185 76 303 99 52 10 97 21 100 25 19 18 12 725 -7 725 -3 0 -44 -13 -91 -29z"/>
<path d="M562 6422 c-296 -592 -442 -1204 -442 -1857 0 -1885 1282 -3532 3110 -3996 80 -20 146 -35 147 -34 2 1 -24 42 -57 92 -89 135 -172 290 -238 442 -33 75 -62 143 -65 152 -5 15 -52 17 -444 24 -241 4 -445 11 -453 15 -8 5 -98 93 -200 197 -101 103 -288 291 -415 417 -126 126 -240 243 -253 260 l-22 30 0 1325 0 1326 -42 38 -43 38 388 -7 387 -6 0 106 0 106 139 0 138 0 27 74 c14 41 26 78 26 82 0 5 -41 50 -92 101 l-92 93 34 35 34 35 -466 0 -467 0 63 133 c139 290 434 884 459 924 15 24 27 45 27 48 0 3 -245 5 -544 5 l-545 0 -99 -198z"/>
</g>
<g id="layer108" fill="#ffffff" stroke="none">
<path d="M3830 10905 l0 -995 105 0 105 0 0 995 0 995 -105 0 -105 0 0 -995z"/>
<path d="M4560 10905 l0 -995 105 0 105 0 0 995 0 995 -105 0 -105 0 0 -995z"/>
<path d="M5290 10905 l0 -995 105 0 105 0 0 995 0 995 -105 0 -105 0 0 -995z"/>
<path d="M6020 10905 l0 -995 105 0 105 0 0 995 0 995 -105 0 -105 0 0 -995z"/>
<path d="M3545 9803 c-176 -39 -336 -158 -410 -302 -50 -100 -65 -174 -65 -321 l0 -138 553 -315 c303 -173 714 -407 912 -519 198 -113 456 -260 573 -327 117 -66 216 -121 220 -121 5 0 31 35 59 78 165 247 345 421 623 599 114 73 516 303 693 397 l127 68 0 178 c0 116 -5 206 -15 257 -34 178 -153 334 -315 411 -47 22 -109 45 -138 51 -52 11 -2770 15 -2817 4z m507 -250 c58 -26 118 -85 149 -149 19 -40 24 -64 24 -129 0 -130 -54 -218 -167 -275 -50 -24 -74 -30 -128 -30 -98 0 -155 23 -222 90 -45 45 -60 69 -73 115 -51 174 44 354 208 396 52 13 158 4 209 -18z m754 -6 c188 -95 226 -349 74 -496 -54 -53 -131 -81 -219 -81 -119 0 -217 65 -273 180 -31 65 -31 177 0 245 37 81 112 147 202 176 49 16 162 4 216 -24z m730 0 c64 -32 127 -103 148 -164 24 -71 21 -177 -8 -238 -30 -66 -111 -138 -178 -161 -239 -79 -471 147 -392 383 31 91 109 170 197 199 65 21 171 13 233 -19z m721 5 c109 -57 173 -157 173 -273 0 -96 -23 -154 -89 -220 -64 -64 -131 -92 -218 -91 -166 1 -303 140 -303 307 0 120 81 240 192 284 70 28 183 24 245 -7z"/>
<path d="M3859 9506 c-62 -17 -122 -66 -151 -124 -33 -67 -32 -160 2 -222 67 -120 220 -163 336 -95 53 31 87 74 108 138 19 57 20 89 2 140 -46 126 -174 197 -297 163z m141 -94 c50 -25 80 -74 80 -134 0 -59 -19 -99 -62 -131 -93 -70 -218 -23 -249 94 -11 43 -10 50 12 95 31 63 77 94 138 94 25 0 62 -8 81 -18z"/>
<path d="M3884 9360 c-31 -12 -54 -49 -54 -88 0 -48 46 -92 95 -92 27 0 44 8 66 29 73 74 -9 191 -107 151z"/>
<path d="M4617 9509 c-58 -13 -92 -34 -131 -81 -41 -48 -56 -91 -56 -163 0 -67 27 -122 84 -172 103 -91 248 -79 339 27 115 135 41 352 -134 389 -56 12 -50 12 -102 0z m164 -126 c63 -68 63 -158 -2 -222 -110 -111 -291 -12 -266 145 13 81 77 127 171 121 54 -3 62 -7 97 -44z"/>
<path d="M4608 9341 c-76 -68 -6 -187 91 -156 66 21 83 105 32 156 -39 38 -80 39 -123 0z"/>
<path d="M5347 9509 c-52 -12 -87 -32 -124 -71 -96 -100 -82 -272 30 -355 152 -113 361 -24 384 165 18 160 -134 297 -290 261z m133 -101 c55 -38 74 -72 74 -131 0 -136 -145 -212 -251 -131 -44 33 -63 73 -63 131 0 89 67 152 161 153 32 0 56 -7 79 -22z"/>
<path d="M5348 9352 c-56 -34 -58 -120 -4 -157 58 -41 146 7 146 80 0 27 -8 44 -29 66 -34 33 -72 37 -113 11z"/>
<path d="M6095 9513 c-88 -20 -151 -66 -187 -136 -16 -32 -19 -55 -16 -116 3 -69 7 -82 38 -126 49 -68 113 -100 200 -100 53 0 74 5 112 28 75 44 128 131 128 211 0 90 -78 201 -156 223 -56 16 -96 22 -119 16z m103 -97 c86 -45 112 -155 58 -239 -10 -14 -38 -36 -62 -48 -55 -26 -112 -20 -161 17 -44 33 -63 73 -63 131 0 58 36 118 83 138 42 18 111 19 145 1z"/>
<path d="M6079 9355 c-81 -44 -46 -175 46 -175 70 0 117 80 85 141 -12 22 -61 49 -87 49 -10 -1 -30 -7 -44 -15z"/>
<path d="M8155 9384 c-375 -84 -1817 -814 -2262 -1146 -352 -263 -617 -684 -778 -1239 -46 -158 -90 -373 -110 -538 -9 -74 -18 -137 -20 -141 -2 -4 -30 -12 -62 -20 -183 -40 -462 -164 -582 -257 -102 -80 -132 -127 -185 -296 -121 -384 -172 -632 -183 -887 -15 -356 69 -558 278 -663 161 -81 304 -65 439 50 53 46 120 134 157 207 l30 59 42 -134 c24 -74 76 -225 117 -337 476 -1295 1173 -2191 2042 -2627 70 -35 165 -79 212 -98 181 -74 483 -159 499 -141 124 148 258 350 341 514 25 50 95 151 179 259 535 686 895 1246 986 1531 33 107 32 134 -12 221 -30 61 -63 101 -188 229 -84 85 -160 171 -170 190 -25 49 -23 125 5 180 42 82 160 193 485 455 478 385 659 584 642 706 -16 123 -223 333 -476 484 -55 33 -103 67 -107 75 -13 31 -16 199 -5 266 17 98 68 197 147 285 72 81 114 153 114 196 0 61 -58 156 -202 334 -43 52 -78 99 -78 104 0 4 24 5 54 1 43 -5 58 -2 76 12 42 34 37 160 -12 290 -31 83 -65 115 -150 142 -40 12 -85 34 -100 48 -43 40 -62 110 -55 211 5 91 17 133 131 465 107 312 122 469 57 601 -45 91 -115 142 -367 269 -137 68 -192 90 -313 123 -87 23 -116 26 -321 29 -177 3 -240 0 -295 -12z m50 -4425 c88 -15 92 -19 75 -69 -12 -37 -16 -41 -39 -36 -56 13 -101 18 -101 11 0 -4 10 -39 22 -78 19 -61 22 -96 23 -222 0 -82 -4 -176 -8 -207 -8 -51 -7 -56 10 -53 81 16 79 17 92 -27 8 -25 9 -44 3 -50 -16 -16 -153 -21 -244 -9 -197 26 -500 151 -750 307 l-37 24 47 43 c102 94 294 222 422 280 190 86 336 112 485 86z"/>
<path d="M7882 4835 c-100 -35 -219 -96 -332 -171 -124 -83 -133 -91 -125 -104 11 -17 251 -134 359 -174 72 -27 101 -34 106 -26 4 7 11 44 14 84 10 107 46 303 67 363 22 64 20 65 -89 28z"/>
<path d="M8057 4760 c-17 -44 -38 -167 -71 -427 -4 -29 -2 -32 31 -38 19 -3 37 -4 40 -2 2 3 12 31 21 64 22 77 22 308 0 373 -10 29 -17 40 -21 30z"/>
<path d="M2640 9166 c0 -3 16 -99 35 -213 95 -567 145 -1160 131 -1560 -7 -179 -6 -183 13 -183 14 0 23 9 27 28 27 111 127 244 229 302 128 73 298 79 432 16 125 -60 222 -174 254 -300 l11 -46 229 0 c179 0 235 3 261 15 80 35 228 95 236 95 5 0 20 -25 32 -55 22 -53 24 -55 61 -55 l38 0 3 68 3 67 173 3 172 2 0 -70 c0 -38 3 -70 6 -70 4 0 25 5 47 12 31 9 43 20 54 47 8 20 20 43 27 51 7 8 32 60 55 115 24 55 59 129 78 164 28 52 32 66 21 76 -7 7 -150 90 -318 185 -168 95 -750 427 -1295 738 -544 310 -995 567 -1002 569 -7 3 -13 2 -13 -1z"/>
<path d="M2562 8094 c-467 -123 -866 -412 -1132 -819 -72 -110 -163 -299 -205 -426 -46 -140 -46 -139 14 -139 l48 0 23 63 c34 96 121 273 178 364 159 257 398 496 655 655 120 75 285 152 422 197 l120 39 3 46 c4 55 5 55 -126 20z"/>
<path d="M2600 7901 c-527 -179 -947 -566 -1163 -1072 -20 -47 -37 -94 -37 -103 0 -14 22 -16 209 -16 l210 0 48 55 c103 118 272 243 428 316 106 50 185 76 303 99 52 10 97 21 100 25 19 18 12 725 -7 725 -3 0 -44 -13 -91 -29z"/>
<path d="M3242 7500 c-161 -33 -290 -171 -308 -330 l-6 -57 -117 -6 c-329 -17 -600 -134 -821 -357 -145 -145 -162 -174 -491 -849 -77 -156 -139 -288 -139 -292 0 -5 195 -9 432 -9 l433 0 95 95 95 95 84 -84 84 -85 51 28 c28 15 70 34 94 44 l42 17 0 115 0 115 245 0 245 0 0 -108 0 -107 53 -19 c28 -10 74 -29 101 -43 l50 -24 77 77 c68 67 80 76 94 64 14 -12 15 -10 5 14 -5 15 -10 31 -10 36 0 4 36 23 80 41 80 34 89 44 74 83 -5 13 -23 16 -95 16 l-89 0 0 170 0 170 89 0 c72 0 90 3 95 16 15 40 6 50 -74 83 -44 18 -80 37 -80 42 0 9 119 300 126 308 2 2 40 -11 85 -30 l81 -34 20 25 19 24 -65 65 -66 66 117 117 118 118 -191 0 -191 0 -5 64 c-17 202 -236 366 -436 326z m215 -116 c131 -63 200 -218 159 -357 -56 -193 -279 -282 -453 -180 -152 89 -191 302 -82 454 75 106 249 145 376 83z m-707 -454 c0 -33 -6 -35 -101 -43 -170 -15 -353 -95 -496 -219 -78 -66 -138 -143 -251 -321 -59 -92 -150 -235 -202 -317 -52 -82 -100 -154 -106 -160 -17 -17 -57 6 -52 28 3 10 43 76 89 147 47 72 134 208 194 303 61 95 132 202 159 238 59 79 175 181 271 237 130 77 317 133 453 136 40 1 42 0 42 -29z"/>
<path d="M3225 7331 c-83 -39 -145 -133 -145 -221 0 -88 62 -182 145 -221 78 -36 199 -16 263 44 13 12 35 43 48 69 46 90 24 218 -48 285 -64 60 -185 80 -263 44z m183 -88 c97 -72 96 -195 -1 -267 -40 -29 -134 -29 -174 0 -33 24 -73 97 -73 134 0 45 42 113 85 138 49 28 122 26 163 -5z"/>
<path d="M3255 7175 c-27 -26 -34 -80 -14 -117 14 -26 67 -48 101 -41 71 14 99 112 45 159 -39 33 -99 33 -132 -1z"/>
<path d="M4730 7168 l0 -83 -88 -17 c-49 -10 -96 -20 -105 -24 -17 -6 -24 5 -70 118 l-15 36 -66 -26 c-36 -15 -66 -33 -66 -40 0 -7 11 -39 25 -72 14 -33 25 -65 25 -72 0 -8 -16 -22 -36 -33 -20 -11 -59 -36 -87 -57 l-51 -38 -61 60 -61 60 -52 -53 -52 -53 55 -54 c30 -30 55 -58 55 -63 0 -5 -21 -42 -47 -82 -27 -39 -52 -79 -58 -88 -9 -15 -17 -14 -80 13 -38 17 -74 30 -80 30 -9 0 -70 -131 -63 -135 2 0 35 -14 73 -30 39 -15 73 -31 77 -34 3 -3 -2 -37 -12 -76 -11 -38 -19 -84 -19 -102 l-1 -32 -87 -3 -88 -3 0 -75 0 -75 88 -3 87 -3 1 -32 c0 -18 8 -63 18 -102 11 -38 17 -73 15 -77 -2 -3 -21 -12 -42 -19 -20 -6 -54 -20 -74 -30 l-37 -19 27 -65 c15 -36 32 -65 39 -65 6 0 41 14 78 30 37 17 69 30 71 30 2 0 13 -19 25 -42 12 -24 24 -38 26 -33 2 6 27 80 56 166 51 155 52 157 39 210 -20 85 -10 247 23 344 66 201 222 369 411 443 116 46 258 62 364 42 29 -6 55 -8 57 -6 7 7 63 220 59 224 -2 2 -34 9 -70 15 l-66 11 0 83 0 83 -80 0 -80 0 0 -82z"/>
<path d="M4144 7051 c50 -50 62 -58 78 -50 28 15 31 30 13 72 l-15 37 -67 0 -67 0 58 -59z"/>
<path d="M4686 6645 c-183 -47 -333 -197 -381 -382 -8 -31 -15 -74 -15 -95 l0 -38 57 37 c92 59 269 138 408 184 72 23 133 45 137 48 9 8 41 241 34 248 -13 13 -184 12 -240 -2z"/>
<path d="M563 6423 c-296 -588 -443 -1204 -443 -1858 0 -1885 1282 -3532 3110 -3996 80 -20 146 -35 147 -34 2 1 -24 42 -57 92 -89 135 -172 290 -238 442 -33 75 -62 143 -65 152 -5 15 -52 17 -444 24 -241 4 -445 11 -453 15 -8 5 -98 93 -200 197 -101 103 -288 291 -415 417 -126 126 -240 243 -253 260 l-22 30 0 1325 0 1326 -42 38 -43 38 388 -7 387 -6 0 106 0 106 139 0 138 0 27 74 c14 41 26 78 26 82 0 5 -41 50 -92 101 l-92 93 34 35 34 35 -466 0 -467 0 63 133 c139 290 434 884 459 924 15 24 27 45 27 48 0 3 -245 5 -544 5 l-544 0 -99 -197z"/>
<path d="M2868 5739 l-3 -101 -77 -28 c-43 -15 -106 -44 -140 -65 -35 -21 -66 -40 -71 -42 -4 -3 -36 24 -71 59 -104 104 -83 105 -197 -8 -54 -54 -99 -103 -99 -109 0 -5 37 -47 82 -92 l81 -82 -30 -68 c-17 -37 -38 -100 -48 -140 l-17 -72 -132 -3 -131 -3 0 -145 0 -145 144 -5 144 -5 12 -42 c7 -23 31 -76 54 -119 l42 -78 -102 -102 c-57 -57 -101 -105 -98 -108 2 -2 49 -50 103 -106 l99 -101 107 106 107 107 64 -33 c35 -18 89 -40 119 -50 l55 -17 3 -151 3 -151 149 0 150 0 0 149 0 148 43 7 c23 4 80 23 125 43 l84 36 99 -99 99 -99 106 106 106 106 -92 91 -91 91 40 67 c34 57 56 105 86 192 3 7 22 12 50 12 l45 0 0 83 c0 45 3 112 7 150 l6 67 -41 0 c-37 0 -42 3 -48 28 -16 78 -49 173 -77 225 l-30 58 71 72 72 72 -105 105 -105 105 -70 -70 -70 -70 -28 18 c-50 33 -153 78 -218 95 l-64 17 0 97 0 98 -150 0 -149 0 -3 -101z m327 -353 c220 -70 365 -266 365 -495 0 -241 -149 -438 -385 -506 -44 -13 -84 -16 -165 -13 -100 4 -111 7 -194 47 -107 52 -185 126 -237 226 -43 82 -59 149 -59 248 0 142 46 254 147 359 67 69 166 127 248 147 79 18 199 13 280 -13z"/>
<path d="M2970 5309 c-178 -29 -324 -180 -352 -367 -20 -125 26 -257 121 -352 82 -81 199 -130 310 -130 58 0 169 38 229 77 132 88 209 262 182 416 -41 235 -259 394 -490 356z m227 -73 c76 -35 153 -112 191 -193 24 -51 27 -70 26 -158 0 -89 -3 -106 -29 -159 -36 -75 -108 -146 -182 -183 -53 -25 -68 -28 -163 -28 -93 0 -112 3 -162 27 -73 34 -146 107 -183 182 -58 120 -42 292 38 393 87 108 187 155 322 150 62 -3 94 -10 142 -31z"/>
<path d="M2995 5170 c-94 -15 -179 -81 -217 -168 -61 -137 8 -313 145 -373 174 -76 370 34 401 226 8 51 -15 142 -50 194 -56 86 -176 138 -279 121z"/>
<path d="M3841 5316 l-33 -34 30 -79 c17 -43 33 -86 36 -95 12 -39 24 -13 40 88 l17 106 -22 24 c-12 13 -25 24 -29 24 -3 0 -21 -15 -39 -34z"/>
<path d="M1327 4128 c-4 -364 -7 -947 -7 -1296 l0 -635 248 -246 c137 -135 326 -327 422 -426 l173 -180 1264 1 1263 2 0 -118 c0 -82 4 -120 13 -127 39 -31 193 -42 303 -22 135 24 320 93 482 181 l92 49 0 184 0 184 131 3 130 3 26 76 25 76 -47 46 c-26 26 -52 47 -58 47 -7 0 -77 -27 -156 -60 -79 -33 -150 -60 -157 -60 -6 0 -19 19 -28 43 -60 153 -68 167 -92 162 -82 -17 -74 -2 -74 -130 l0 -115 -210 0 -210 0 0 114 0 114 -47 11 c-27 5 -51 7 -54 3 -4 -4 -25 -50 -47 -102 -22 -52 -45 -96 -50 -98 -5 -1 -65 20 -133 48 -68 28 -148 61 -177 73 -30 11 -56 26 -59 33 -2 7 14 56 37 111 l41 98 -28 23 c-54 43 -60 41 -140 -42 -41 -42 -77 -76 -81 -76 -4 0 -72 65 -152 145 l-145 145 83 83 82 82 -27 38 c-14 20 -31 37 -36 37 -6 0 -55 -18 -110 -41 -54 -22 -100 -39 -101 -37 -2 2 -18 41 -38 88 -19 47 -54 131 -78 188 -23 56 -41 104 -39 106 2 1 50 22 107 46 l103 43 -7 46 c-4 25 -8 49 -11 54 -2 4 -56 7 -119 7 l-114 0 0 205 0 205 114 0 c63 0 117 3 119 8 3 4 8 27 12 52 l7 45 -107 44 c-83 34 -104 47 -100 60 2 9 18 46 33 84 l29 67 -114 112 -113 112 -33 -13 c-17 -7 -49 -17 -69 -23 l-38 -10 0 -159 0 -159 -245 0 -245 0 0 163 0 164 -62 27 -62 26 -116 -115 -115 -115 -175 175 -174 174 111 112 111 112 -29 61 -29 61 -152 5 -153 5 -3 98 -3 97 -293 0 -293 0 -6 -662z m223 -493 l0 -925 -35 0 -35 0 0 925 0 925 35 0 35 0 0 -925z m1145 -353 c115 -42 175 -115 175 -212 0 -99 -67 -177 -186 -216 -81 -26 -341 -28 -424 -2 -135 42 -196 117 -188 232 5 88 37 134 120 175 88 43 132 50 298 47 120 -2 155 -6 205 -24z m163 -809 l2 -213 -45 0 -45 0 0 75 0 75 -342 2 -343 3 1 45 c1 25 13 77 27 115 24 64 28 70 56 73 l31 3 0 -70 0 -71 285 0 285 0 0 83 c0 46 3 87 7 91 4 4 23 6 43 4 l35 -3 3 -212z m-1115 16 c88 -24 156 -125 144 -214 -23 -164 -221 -231 -338 -114 -105 105 -55 285 89 329 38 12 62 11 105 -1z m608 -695 c14 -7 40 -29 56 -48 142 -161 -40 -399 -234 -305 -164 79 -136 326 42 370 37 9 101 1 136 -17z m2089 -289 l0 -35 -925 0 -925 0 0 35 0 35 925 0 925 0 0 -35z"/>
<path d="M2360 3210 c-143 -19 -210 -63 -210 -138 0 -98 100 -144 315 -145 156 -1 238 18 291 68 28 27 34 40 34 73 0 33 -6 48 -33 75 -61 61 -230 89 -397 67z"/>
<path d="M1607 2400 c-85 -74 -56 -198 53 -231 33 -10 44 -9 84 11 55 26 76 61 76 125 0 37 -6 52 -33 82 -29 31 -41 37 -89 41 -50 4 -58 2 -91 -28z m139 -9 c92 -56 52 -201 -56 -201 -112 0 -150 161 -47 205 43 19 66 18 103 -4z"/>
<path d="M1657 2334 c-15 -15 -7 -63 13 -74 33 -17 62 4 58 43 -3 27 -7 32 -33 35 -17 2 -34 0 -38 -4z"/>
<path d="M2193 1731 c-89 -56 -85 -184 7 -231 48 -24 71 -25 117 -3 47 22 73 66 73 126 0 40 -5 53 -33 83 -28 31 -41 37 -83 41 -37 3 -57 -1 -81 -16z m112 -15 c38 -16 65 -60 65 -107 0 -48 -56 -99 -108 -99 -114 0 -153 160 -49 205 41 18 50 18 92 1z"/>
<path d="M2232 1648 c-21 -21 -14 -57 14 -70 23 -11 29 -10 45 10 13 16 16 29 10 45 -9 25 -50 34 -69 15z"/>
<path d="M3814 4516 l-41 -84 56 -56 57 -56 28 29 29 30 -22 68 c-11 37 -25 86 -29 108 -13 64 -32 55 -78 -39z"/>
<path d="M3979 4274 c-11 -13 -2 -26 63 -91 l76 -75 -62 -92 c-33 -51 -66 -100 -71 -110 -10 -17 -17 -16 -113 24 -56 24 -104 41 -105 39 -20 -31 -85 -209 -76 -209 2 0 47 -18 99 -39 56 -23 94 -45 92 -52 -2 -7 -13 -63 -25 -125 l-22 -113 -110 -3 -110 -3 -3 -112 -3 -113 114 0 113 0 21 -112 c11 -62 22 -119 24 -127 4 -13 -69 -50 -169 -87 l-31 -12 42 -101 c23 -55 47 -101 52 -101 6 0 53 17 105 39 l94 39 48 -77 c26 -42 58 -89 72 -106 l25 -30 -80 -80 -79 -80 80 -80 80 -80 79 79 80 79 54 -40 c29 -23 77 -54 105 -70 29 -15 52 -31 52 -36 0 -4 -18 -50 -41 -103 -22 -53 -39 -97 -37 -99 7 -8 200 -86 203 -83 2 2 20 44 40 93 20 50 40 93 44 97 5 6 173 -21 239 -38 9 -2 12 -34 12 -114 l0 -110 115 0 115 0 0 110 c0 106 1 110 23 114 12 2 69 14 125 26 57 12 105 20 106 18 1 -2 20 -43 40 -93 21 -49 41 -93 45 -97 8 -9 194 66 199 81 2 5 -15 52 -36 104 l-40 95 89 57 c49 31 91 61 94 65 3 5 -28 54 -69 109 -41 55 -83 114 -92 131 -10 16 -22 30 -26 30 -4 0 -29 -15 -55 -34 -327 -232 -791 -210 -1102 55 -123 104 -234 278 -281 439 -31 108 -38 298 -16 410 21 103 63 214 113 299 43 72 144 185 216 243 l49 38 -76 -6 c-163 -14 -332 55 -449 185 -39 44 -46 49 -58 35z"/>
<path d="M4787 4209 c-33 -32 -57 -59 -55 -59 2 0 29 9 61 20 31 11 63 20 70 20 12 0 12 7 4 40 -6 22 -14 40 -17 39 -3 0 -31 -27 -63 -60z"/>
<path d="M3852 4117 l-53 -53 67 -27 c37 -15 68 -26 69 -24 1 1 14 20 28 42 l27 39 -37 38 c-20 21 -40 38 -43 38 -3 0 -29 -24 -58 -53z"/>
<path d="M4830 4081 c-340 -109 -565 -417 -564 -771 4 -637 707 -1016 1240 -669 41 27 74 53 74 59 0 16 -9 12 -79 -34 -247 -164 -560 -176 -814 -32 -101 58 -160 107 -228 194 -217 271 -226 667 -24 943 103 139 276 257 443 299 23 6 40 15 37 20 -8 13 -20 12 -85 -9z"/>
<path d="M4855 3962 c-108 -36 -186 -84 -265 -162 -113 -112 -179 -245 -200 -402 -26 -198 38 -398 177 -548 166 -179 403 -255 645 -205 81 17 214 78 270 124 l36 31 -75 127 c-79 136 -275 528 -339 678 -21 50 -63 155 -94 234 -31 80 -60 146 -66 148 -5 1 -45 -10 -89 -25z"/>
<path d="M5799 2204 l-37 -25 16 -40 15 -40 48 47 c46 45 48 49 32 66 -21 23 -30 22 -74 -8z"/>
<path d="M5917 2083 l-67 -68 80 -80 81 -81 -30 -64 c-26 -59 -37 -94 -55 -172 l-6 -28 -125 0 -125 0 0 -140 0 -140 134 0 134 0 12 -37 c7 -21 31 -73 53 -116 l40 -79 -96 -96 -97 -97 98 -98 97 -97 99 99 99 99 80 -39 c44 -21 95 -42 114 -45 l33 -6 0 -144 0 -144 140 0 140 0 0 140 c0 129 1 140 18 140 23 0 148 42 191 65 l34 17 93 -93 94 -94 97 98 98 97 -87 87 -86 88 37 60 c21 33 40 68 44 78 7 19 1 22 -150 87 l-41 18 -35 -57 c-171 -276 -542 -322 -772 -95 -178 174 -194 477 -35 657 16 19 30 38 30 42 0 7 -278 297 -290 303 -3 1 -35 -28 -73 -65z"/>
<path d="M6319 1738 c-97 -133 -111 -278 -39 -424 116 -236 439 -290 629 -105 60 58 99 129 79 142 -8 6 -16 3 -23 -7 -50 -80 -73 -108 -113 -137 -72 -53 -135 -72 -227 -72 -69 1 -89 5 -146 33 -79 38 -140 100 -177 180 -23 49 -27 70 -26 147 0 100 19 155 75 226 28 36 31 59 8 59 -5 0 -23 -19 -40 -42z"/>
<path d="M6427 1659 c-55 -64 -72 -161 -45 -253 18 -60 109 -148 171 -165 70 -20 158 -9 215 26 51 31 115 107 110 131 -2 8 -48 43 -103 77 -55 35 -148 99 -207 143 l-107 81 -34 -40z"/>
<path d="M3304 1243 l-192 -3 33 -80 c118 -279 302 -576 492 -795 137 -158 115 -143 236 -165 327 -59 783 -83 1023 -54 l42 5 -55 91 c-31 50 -79 137 -108 192 -106 204 -177 496 -184 764 l-1 52 -547 -2 c-302 -2 -634 -4 -739 -5z"/>
<path d="M5424 1160 c-77 -38 -194 -86 -260 -106 -113 -35 -126 -37 -264 -38 -80 -1 -157 2 -171 6 -26 8 -26 8 -22 -45 7 -76 67 -304 105 -400 33 -81 189 -356 232 -410 l23 -28 149 36 c346 84 705 197 997 313 l168 66 -3 84 -3 84 -55 23 -55 23 -110 -109 -110 -109 -165 165 -165 165 80 80 79 80 -42 85 -42 85 -105 0 c-63 0 -105 4 -105 10 0 15 -4 13 -156 -60z m-342 -246 c94 -48 133 -163 89 -259 -67 -148 -282 -152 -353 -7 -46 97 -12 213 77 260 64 33 129 35 187 6z"/>
<path d="M4923 850 c-98 -59 -75 -208 38 -241 72 -22 150 29 165 108 5 28 2 47 -16 79 -37 70 -121 95 -187 54z m111 -14 c60 -25 83 -88 54 -151 -24 -54 -113 -73 -161 -35 -59 47 -51 140 15 180 39 24 48 24 92 6z"/>
<path d="M4962 768 c-39 -39 17 -100 58 -63 34 31 20 75 -25 75 -12 0 -26 -5 -33 -12z"/>
</g>


</svg>